<svg width="554" height="554" viewBox="0 0 554 554" fill="none" xmlns="http://www.w3.org/2000/svg">
<path d="M553.912 166.095C553.883 131.73 543.876 98.2179 525.269 70.1717C506.661 42.1256 480.366 20.9235 450.004 9.48279C419.642 -1.95788 386.704 -3.07475 355.722 6.28588C324.74 15.6465 297.238 35.0246 277 61.7535C256.762 35.0246 229.26 15.6465 198.278 6.28588C167.296 -3.07475 134.358 -1.95788 103.996 9.48279C73.6335 20.9235 47.3393 42.1256 28.7314 70.1717C10.1236 98.2179 0.116666 131.73 0.087688 166.095C0.087688 166.095 -12.8926 335.804 277 554C566.893 335.804 553.912 166.095 553.912 166.095ZM489.855 268.59C471.488 305.533 445.549 343.423 412.774 381.382C375.996 424.029 330.306 466.814 277 508.49C223.694 466.721 178.09 424.029 141.226 381.382C108.451 343.423 82.5124 305.487 64.1237 268.59C35.0262 210.081 34.5719 172.999 34.6152 168.843V168.243V166.095C34.6432 139.367 42.4311 113.306 56.9073 91.4957C71.3836 69.6859 91.8367 53.2 115.452 44.3064C139.068 35.4128 164.686 34.5486 188.781 41.8327C212.875 49.1167 234.263 64.1911 250.001 84.9816L277 120.516L303.912 84.9816C319.65 64.1911 341.038 49.1167 365.133 41.8327C389.228 34.5486 414.845 35.4128 438.461 44.3064C462.077 53.2 482.53 69.6859 497.006 91.4957C511.482 113.306 519.27 139.367 519.298 166.095L519.168 166.973L519.385 168.797C519.298 172.607 519.06 209.781 489.768 268.59H489.855Z" fill="#414042"/>
<path d="M155.348 74C131.253 74 108.146 84.1967 91.1087 102.347C74.0714 120.497 64.5 145.114 64.5 170.783C64.5 173.227 65.4116 175.572 67.0342 177.3C68.6568 179.029 70.8575 180 73.1522 180C75.4469 180 77.6476 179.029 79.2702 177.3C80.8928 175.572 81.8043 173.227 81.8043 170.783C81.8043 150.003 89.5527 130.075 103.345 115.382C117.137 100.689 135.843 92.4348 155.348 92.4348C157.643 92.4348 159.843 91.4637 161.466 89.7351C163.088 88.0065 164 85.662 164 83.2174C164 80.7728 163.088 78.4283 161.466 76.6997C159.843 74.9711 157.643 74 155.348 74Z" fill="#414042"/>
</svg>
