<svg width="723" height="601" viewBox="0 0 723 601" fill="none" xmlns="http://www.w3.org/2000/svg">
<path d="M571.547 600.192H151.489C148.298 600.192 145.237 598.904 142.977 596.61C140.717 594.317 139.441 591.204 139.429 587.954V253.888L52.451 264.195C49.5263 264.541 46.5784 263.784 44.1639 262.068C41.7493 260.352 40.0351 257.795 39.3449 254.88L0.339392 90.6692C-0.392863 87.5934 0.0697588 84.3485 1.63066 81.6118C3.19157 78.8752 5.73009 76.8584 8.71623 75.9826L265.055 0.765204C267.917 -0.0749011 270.984 0.195415 273.662 1.52395C276.34 2.85248 278.44 5.14491 279.555 7.95824C286.194 24.5498 297.537 38.7502 312.135 48.7466C326.734 58.7431 343.926 64.0821 361.518 64.0821C379.109 64.0821 396.302 58.7431 410.901 48.7466C425.499 38.7502 436.842 24.5498 443.48 7.95824C444.602 5.1516 446.705 2.86734 449.382 1.54587C452.06 0.224394 455.123 -0.0407163 457.981 0.801632L714.284 76.019C717.27 76.8949 719.808 78.9116 721.369 81.6483C722.93 84.3849 723.393 87.6298 722.661 90.7056L683.691 254.916C683.001 257.832 681.287 260.389 678.872 262.105C676.457 263.821 673.509 264.577 670.585 264.231L583.598 253.924V587.954C583.588 591.203 582.315 594.316 580.056 596.61C577.797 598.904 574.737 600.192 571.547 600.192V600.192ZM163.54 575.608H559.496V240.139C559.496 238.411 559.855 236.702 560.549 235.125C561.242 233.547 562.256 232.137 563.521 230.986C564.787 229.835 566.278 228.97 567.895 228.446C569.512 227.922 571.22 227.752 572.906 227.947L662.798 238.555L696.547 96.3234L461.209 27.2611C451.651 45.7559 437.314 61.2403 419.747 72.0423C402.179 82.8443 382.048 88.5536 361.527 88.5536C341.006 88.5536 320.875 82.8443 303.307 72.0423C285.739 61.2403 271.403 45.7559 261.845 27.2611L26.5159 96.3234L60.2378 238.555L150.068 227.911C151.754 227.716 153.461 227.886 155.078 228.409C156.696 228.933 158.186 229.799 159.452 230.95C160.718 232.101 161.731 233.511 162.424 235.088C163.118 236.665 163.477 238.374 163.478 240.102L163.54 575.608Z" fill="#424242"/>
</svg>
