<svg width="950" height="460" viewBox="0 0 950 460" fill="none" xmlns="http://www.w3.org/2000/svg">
<path d="M933.375 200.839L856.263 113.952C845.104 101.385 823.555 91.9193 806.13 91.9193H709.448L714.808 40.5062C715.908 29.9826 712.627 19.5787 705.81 11.9563C698.994 4.33392 689.185 0.0198975 678.779 0.0198975H218.967C198.122 0.0198975 180.076 16.4499 177.879 37.4373L175.643 58.8997H111.415C107.584 58.9633 103.932 60.5421 101.245 63.2957C98.5588 66.0493 97.0532 69.7571 97.0532 73.6196C97.0532 77.4822 98.5588 81.19 101.245 83.9436C103.932 86.6972 107.584 88.276 111.415 88.3396H341.394C345.225 88.276 348.877 86.6972 351.564 83.9436C354.25 81.19 355.756 77.4822 355.756 73.6196C355.756 69.7571 354.25 66.0493 351.564 63.2957C348.877 60.5421 345.225 58.9633 341.394 58.8997H205.014L206.934 40.5142C207.539 34.7276 213.267 29.4598 218.967 29.4598H678.779C681.573 29.4598 683.22 30.657 684.103 31.6587C684.985 32.6604 686.082 34.5321 685.765 37.4373L651.304 368.001H385.074C383.491 353.195 377.601 339.539 367.757 328.492C354.469 313.618 335.75 305.421 315.044 305.421C278.057 305.421 244.467 332.487 234.543 367.981H180.603C177.832 367.981 176.169 366.783 175.271 365.782C174.372 364.78 173.312 362.904 173.612 360.003L183.508 264.947H252.819C256.649 264.883 260.302 263.305 262.988 260.551C265.675 257.797 267.181 254.09 267.181 250.227C267.181 246.365 265.675 242.657 262.988 239.903C260.302 237.15 256.649 235.571 252.819 235.507H14.5982C10.7676 235.571 7.11521 237.15 4.42859 239.903C1.74196 242.657 0.236328 246.365 0.236328 250.227C0.236328 254.09 1.74196 257.797 4.42859 260.551C7.11521 263.305 10.7676 264.883 14.5982 264.947H154.161L144.582 356.926C143.482 367.446 146.763 377.85 153.571 385.48C157.001 389.265 161.179 392.282 165.836 394.339C170.493 396.395 175.526 397.445 180.611 397.421H231.978C233.561 412.226 239.447 425.883 249.3 436.929C262.588 451.799 281.303 460 302.005 460C339.007 460 372.59 432.93 382.509 397.441H714.736C716.32 412.246 722.222 425.911 732.062 436.949C745.35 451.819 764.077 460.012 784.779 460.012C821.774 460.012 855.372 432.934 865.276 397.453H897.528C918.389 397.453 936.423 381.023 938.604 360.035L949.711 253.545C951.536 236.05 944.522 213.39 933.375 200.839ZM356.052 381.182C355.436 386.809 353.925 392.299 351.575 397.441C342.898 416.688 323.321 430.564 301.997 430.564C289.679 430.564 278.674 425.819 270.987 417.223C266.047 411.653 262.749 404.803 261.464 397.445C260.682 393.1 260.523 388.665 260.993 384.275C261.609 378.649 263.118 373.16 265.462 368.017C274.17 348.769 293.724 334.893 315.044 334.893C327.366 334.893 338.378 339.634 346.057 348.23C351.001 353.8 354.302 360.652 355.589 368.013C356.364 372.358 356.52 376.792 356.052 381.182ZM838.81 381.182C838.203 386.808 836.699 392.298 834.357 397.441C825.673 416.688 806.099 430.564 784.779 430.564C772.453 430.564 761.453 425.819 753.769 417.239C748.83 411.661 745.53 404.807 744.238 397.445C743.455 393.1 743.294 388.665 743.759 384.275C744.38 378.65 745.89 373.161 748.232 368.017C756.94 348.769 776.49 334.893 797.818 334.893C810.148 334.893 821.144 339.634 828.816 348.23C833.762 353.798 837.064 360.651 838.347 368.013C839.13 372.357 839.286 376.793 838.81 381.182V381.182ZM920.669 250.484L909.562 356.954C908.964 362.733 903.228 368.001 897.528 368.001H867.841C866.257 353.195 860.375 339.547 850.515 328.492C837.235 313.618 818.524 305.421 797.81 305.421C760.819 305.421 727.221 332.487 717.301 367.981H680.651L706.38 121.319H806.13C815.128 121.319 828.918 127.266 834.508 133.567L911.604 220.47C917.217 226.779 921.623 241.37 920.669 250.484V250.484Z" fill="black"/>
<path d="M820.234 160.828C815.88 155.939 804.092 150.779 797.256 150.779H739.738C737.74 150.824 735.826 151.592 734.344 152.943C732.863 154.295 731.914 156.139 731.67 158.138L724.375 228.24C724.255 229.169 724.335 230.113 724.61 231.008C724.885 231.903 725.348 232.727 725.968 233.425C726.588 234.123 727.351 234.677 728.203 235.05C729.055 235.423 729.978 235.606 730.907 235.587H879.344C883.378 235.587 884.573 233.264 882.024 230.399L820.234 160.828Z" fill="black"/>
<path d="M53.014 147.199H297.572C301.402 147.136 305.055 145.557 307.741 142.803C310.428 140.05 311.934 136.342 311.934 132.479C311.934 128.617 310.428 124.909 307.741 122.156C305.055 119.402 301.402 117.823 297.572 117.76H53.014C49.1834 117.823 45.531 119.402 42.8444 122.156C40.1577 124.909 38.6521 128.617 38.6521 132.479C38.6521 136.342 40.1577 140.05 42.8444 142.803C45.531 145.557 49.1834 147.136 53.014 147.199V147.199Z" fill="black"/>
<path d="M82.2144 176.639C78.3838 176.703 74.7314 178.282 72.0448 181.035C69.3582 183.789 67.8525 187.497 67.8525 191.359C67.8525 195.222 69.3582 198.93 72.0448 201.683C74.7314 204.437 78.3838 206.016 82.2144 206.079H363.256C365.194 206.112 367.118 205.755 368.918 205.029C370.717 204.304 372.355 203.225 373.737 201.855C375.118 200.485 376.215 198.851 376.964 197.049C377.713 195.247 378.099 193.313 378.099 191.359C378.099 189.406 377.713 187.472 376.964 185.67C376.215 183.868 375.118 182.234 373.737 180.864C372.355 179.494 370.717 178.415 368.918 177.69C367.118 176.964 365.194 176.607 363.256 176.639H82.2144Z" fill="black"/>
</svg>
