<svg width="2378" height="958" viewBox="0 0 2378 958" fill="none" xmlns="http://www.w3.org/2000/svg">
<path d="M5 874.045C339.93 874.045 674.86 874.045 842.62 874.185C1010.38 874.325 1010.95 874.585 1015.62 868.095C1023.73 856.735 1030.66 844.571 1036.28 831.795C1043.47 815.265 1049.08 795.465 1059.81 754.795C1070.54 714.125 1086.39 652.695 1103.01 608.735C1119.63 564.775 1137.01 538.345 1145.17 529.445C1153.33 520.545 1152.24 529.165 1149.62 544.035C1147 558.905 1142.82 580.035 1129.13 610.445C1115.44 640.855 1092.22 680.605 1075.6 726.315C1058.98 772.025 1048.96 823.685 1040.23 851.695C1031.5 879.705 1024.07 884.095 1017.02 884.635C1009.97 885.175 1003.29 881.905 1021.39 833.255C1039.49 784.605 1082.39 690.565 1109.24 630.425C1136.09 570.285 1147.07 544.055 1154.73 531.425C1162.39 518.795 1166.73 519.615 1193.65 521.145C1220.57 522.675 1269.97 524.865 1294.24 531.205C1318.51 537.545 1317.64 548.035 1325.29 625.015C1332.94 701.995 1349.13 845.435 1360.55 905.685C1371.97 965.935 1378.65 942.965 1375.68 924.295C1372.71 905.625 1360.12 891.295 1350.68 849.375C1341.24 807.455 1334.89 738.115 1325.89 684.185C1316.89 630.255 1305.02 591.765 1301.95 567.495C1298.88 543.225 1304.58 533.155 1323.17 530.095C1341.76 527.035 1373.24 530.975 1394.45 540.155C1415.66 549.335 1426.6 563.775 1441.07 610.365C1455.54 656.955 1473.56 735.715 1492.81 787.245C1512.06 838.775 1532.49 863.105 1538.89 875.905C1545.29 888.705 1537.61 889.985 1532.14 878.685C1526.67 867.385 1523.4 843.505 1509.75 799.855C1496.1 756.205 1472.03 692.795 1452.84 644.355C1433.65 595.915 1419.33 562.465 1415.31 545.685C1411.29 528.905 1417.57 528.825 1432.51 529.325C1447.45 529.825 1471.05 530.905 1483.89 530.905C1496.73 530.905 1498.76 529.955 1518.79 517.805C1538.82 505.655 1576.79 482.335 1597.33 469.805C1617.87 457.275 1620.82 455.395 1607.45 454.045C1594.08 452.695 1564.33 451.815 1534.37 449.845C1504.41 447.875 1474.24 444.845 1450.84 448.095C1427.44 451.345 1410.84 460.995 1388.52 474.555C1366.2 488.115 1338.22 505.605 1315.76 511.725C1293.3 517.845 1276.34 512.605 1241.35 506.915C1206.36 501.225 1153.35 495.115 1133.35 489.425C1113.35 483.735 1126.52 478.495 1155.6 479.585C1184.68 480.675 1229.73 488.115 1261.44 489.205C1293.15 490.295 1311.52 485.055 1320.26 476.085C1329 467.115 1328.14 454.435 1327.7 446.085C1327.26 437.735 1327.26 433.845 1318.08 434.085C1308.9 434.325 1290.52 438.685 1273.69 441.085C1256.86 443.485 1241.54 443.935 1231.92 444.365C1222.3 444.795 1218.36 445.245 1216.17 443.275C1213.98 441.305 1213.55 436.935 1193.65 375.045C1173.75 313.155 1134.39 193.765 1114.71 132.975C1095.03 72.1853 1095.03 69.9753 1103.78 70.4353C1112.53 70.8953 1130.02 73.9353 1180.31 73.2753C1230.6 72.6153 1313.7 68.2753 1358.31 66.2753C1402.92 64.2753 1409.04 64.7453 1411.45 69.9953C1413.86 75.2453 1412.54 85.3053 1426.98 134.065C1441.42 182.825 1471.59 270.305 1488.64 321.255C1505.69 372.205 1509.64 386.635 1510.95 394.725C1512.26 402.815 1510.95 404.565 1486.24 406.095C1461.53 407.625 1413.42 408.945 1381.05 412.005C1348.68 415.065 1332.05 419.875 1313.27 421.845C1294.49 423.815 1273.47 422.935 1257.5 423.845C1241.53 424.755 1230.61 427.345 1227.5 422.095C1224.39 416.845 1229.25 403.725 1231.88 392.575C1234.51 381.425 1234.94 372.235 1251.78 369.835C1268.62 367.435 1301.85 371.835 1321.97 365.895C1342.09 359.955 1349.09 343.805 1355.21 327.625C1361.33 311.445 1366.58 295.265 1380.14 294.625C1393.7 293.985 1415.56 308.835 1427.14 316.135C1438.72 323.435 1440.14 323.135 1441.2 322.945C1442.26 322.755 1443.12 322.565 1452.2 317.415C1461.28 312.265 1478.52 302.145 1490.6 295.805C1502.68 289.465 1509.6 286.905 1517.45 283.225C1525.3 279.545 1534.19 274.725 1540.85 275.105C1547.51 275.485 1552.01 281.105 1553.7 285.935C1555.39 290.765 1554.31 294.935 1551.57 297.295C1548.83 299.655 1544.46 300.195 1537.08 301.075C1529.7 301.955 1519.32 303.155 1511.72 303.265C1504.12 303.375 1499.31 302.385 1501.44 299.765C1503.57 297.145 1512.65 292.875 1520.35 291.405C1528.05 289.935 1534.35 291.235 1537.52 294.685C1540.69 298.135 1540.52 303.685 1535.16 307.685C1529.8 311.685 1519.16 314.075 1516.47 316.685C1513.78 319.295 1519.07 322.205 1528 323.735C1536.93 325.265 1549.49 325.445 1558 323.835C1566.51 322.225 1570.84 318.835 1573.25 315.125C1575.66 311.415 1576.09 307.355 1572.1 300.365C1568.11 293.375 1559.69 283.365 1562.1 282.975C1564.51 282.585 1577.9 291.615 1589.1 297.975C1600.3 304.335 1609.39 308.135 1614.03 311.325C1618.67 314.515 1618.9 317.135 1619.31 321.665C1619.72 326.195 1620.31 332.665 1619.69 337.255C1619.07 341.845 1617.16 344.605 1610.9 341.255C1604.64 337.905 1594 328.255 1588.4 322.365C1582.8 316.475 1582.24 314.165 1582.4 311.305C1582.47 308.275 1583.33 305.314 1584.89 302.715C1586.47 300.435 1588.81 299.305 1594.21 299.435C1599.61 299.565 1608.07 300.945 1612.74 297.805C1617.41 294.665 1618.28 287.025 1617.62 271.165C1616.96 255.305 1614.78 231.255 1612.81 215.295C1610.84 199.335 1609.09 191.465 1610.73 181.405C1612.37 171.345 1617.4 159.095 1619.37 151.555C1621.34 144.015 1620.24 141.165 1615.76 143.135C1611.28 145.105 1603.41 151.885 1598.49 154.505C1593.57 157.125 1591.6 155.595 1590.29 152.505C1588.98 149.415 1588.29 144.855 1587.11 141.685C1585.93 138.515 1584.11 136.765 1581.11 135.885C1578.11 135.005 1573.68 135.015 1571.38 133.815C1569.08 132.615 1568.87 130.205 1569.19 127.355C1569.51 124.505 1570.4 121.235 1570.4 118.175C1570.45 116.53 1570.11 114.896 1569.43 113.399C1568.75 111.902 1567.73 110.58 1566.46 109.535C1563.4 106.805 1558.15 104.175 1554 100.355C1549.85 96.5353 1546.78 91.4953 1548.2 89.0953C1549.62 86.6953 1555.53 86.9053 1571.38 88.9853C1587.23 91.0653 1613.04 94.9853 1634.91 95.4353C1656.78 95.8853 1674.7 92.8053 1680.17 87.8853C1685.64 82.9653 1678.64 76.1853 1664.32 73.1253C1650 70.0653 1628.32 70.7253 1608.23 72.2553C1588.14 73.7853 1569.52 76.1853 1555.85 76.2553C1542.18 76.3253 1533.44 74.1853 1531.36 71.0153C1529.28 67.8453 1533.88 63.6853 1540.11 59.6353C1546.34 55.5853 1554.21 51.6353 1559.68 45.4253C1565.15 39.2153 1568.21 30.6653 1574.99 23.2353C1581.77 15.8053 1592.26 9.45531 1603.42 6.61531C1614.58 3.77531 1626.42 4.42531 1633.59 10.6153C1640.76 16.8053 1643.43 28.6153 1647.7 38.0553C1651.67 46.7798 1657.62 54.4569 1665.08 60.4753C1672.3 66.4753 1680.83 71.4753 1685.53 77.0953C1690.23 82.7153 1691.1 88.7953 1688.92 94.0453C1686.74 99.2953 1681.48 103.665 1673.39 106.285C1665.3 108.905 1654.39 109.785 1645.95 113.615C1637.51 117.445 1631.62 124.215 1629.11 136.355C1626.6 148.495 1627.47 165.985 1630.97 187.855C1634.47 209.725 1640.59 235.965 1646.06 256.405C1650.14 272.174 1655.03 287.721 1660.71 302.985C1665.08 314.465 1669.02 322.775 1668.36 332.285C1667.7 341.795 1662.46 352.515 1665.09 358.455C1667.72 364.395 1678.25 365.565 1690.83 365.755C1703.41 365.945 1718.05 365.135 1730.17 365.645C1742.29 366.155 1751.91 367.975 1753.87 362.535C1755.83 357.095 1750.15 344.425 1746.65 335.025C1743.15 325.625 1741.84 319.495 1734.18 318.945C1726.52 318.395 1712.53 323.435 1703.02 326.385C1693.51 329.335 1688.48 330.205 1684.87 331.635C1681.26 333.065 1679.08 335.025 1683.01 336.555C1686.94 338.085 1697.01 339.175 1706.01 338.955C1715.01 338.735 1722.85 337.205 1728.01 333.165C1733.17 329.125 1735.56 322.555 1737.3 315.235C1739.04 307.915 1740.15 299.815 1740.37 287.785C1740.59 275.755 1739.93 259.785 1734.37 242.955C1728.81 226.125 1718.3 208.405 1707.8 194.955C1697.3 181.505 1686.8 172.325 1689.87 171.955C1692.94 171.585 1709.55 180.155 1720.27 190.955C1730.99 201.755 1735.79 214.895 1737.11 215.115C1738.43 215.335 1736.23 202.655 1728.47 189.115C1720.71 175.575 1707.37 161.115 1699.28 149.975C1691.19 138.835 1688.34 130.975 1688.45 124.825C1688.56 118.675 1691.62 114.325 1697.64 112.355C1703.66 110.385 1712.64 110.825 1727.48 117.605C1742.32 124.385 1763.13 137.505 1774.28 151.835C1785.43 166.165 1786.89 181.905 1788.13 197.385C1789.37 212.865 1790.2 228.385 1794.69 244.615C1799.18 260.845 1807.26 277.615 1814.69 294.695C1822.12 311.775 1828.9 329.025 1835.57 348.055C1842.24 367.085 1848.8 387.855 1848.69 401.735C1848.58 415.615 1841.8 422.625 1834.15 424.155C1826.5 425.685 1817.97 421.745 1809 419.665C1800.03 417.585 1790.63 417.375 1779.13 420.205C1767.63 423.035 1754.01 428.905 1745.32 429.725C1736.63 430.545 1732.88 426.305 1730.5 418.555C1728.12 410.805 1727.12 399.555 1726.18 392.825C1725.24 386.095 1724.37 383.915 1721.75 382.275C1719.13 380.635 1714.75 379.545 1708.63 378.885C1702.51 378.225 1694.63 378.015 1687.2 377.685C1679.77 377.355 1672.77 376.915 1665.66 374.945C1658.55 372.975 1651.34 369.485 1646.85 363.145C1642.36 356.805 1640.62 347.615 1640.18 338.145C1639.74 328.675 1640.62 318.785 1639.53 310.145C1638.44 301.505 1635.37 294.065 1632.42 291.005C1629.47 287.945 1626.63 289.255 1625.84 293.235C1625.05 297.215 1626.33 303.855 1627.64 314.565C1628.95 325.275 1630.3 340.075 1630.87 355.665C1631.44 371.255 1631.22 387.665 1632.09 404.605C1632.96 421.545 1634.94 439.055 1635.81 452.285C1636.68 465.515 1636.47 474.475 1640.95 476.285C1645.43 478.095 1654.62 472.895 1661.39 466.335C1668.16 459.775 1672.55 451.905 1674.39 441.185C1676.23 430.465 1675.59 416.915 1677.25 407.185C1678.91 397.455 1682.88 391.385 1688.59 388.255C1691.58 386.678 1694.91 385.834 1698.29 385.79C1701.68 385.747 1705.03 386.506 1708.06 388.005C1714.38 391.125 1719.59 397.595 1719.56 414.385C1719.53 431.175 1714.29 458.295 1708.39 477.865C1702.49 497.435 1695.93 509.465 1689.95 517.395C1683.97 525.325 1678.58 529.145 1673.12 530.265C1667.66 531.385 1662.12 529.775 1661.78 526.545C1661.44 523.315 1666.2 518.475 1667.62 513.965C1669.04 509.455 1667.06 505.305 1664.11 504.105C1661.16 502.905 1657.22 504.655 1652.74 510.225C1648.26 515.795 1643.22 525.225 1638.41 527.225C1633.6 529.225 1629.01 523.725 1628.14 517.385C1627.27 511.045 1630.14 503.825 1634.7 497.705C1639.49 491.327 1645.96 486.407 1653.39 483.495C1661.16 480.425 1670.39 479.335 1675.7 474.495C1681.01 469.655 1682.59 461.155 1683.13 448.145C1683.67 435.135 1683.24 417.645 1686.52 406.925C1689.8 396.205 1696.8 392.275 1702.05 395.925C1707.3 399.575 1710.8 410.685 1713.31 419.325C1715.82 427.965 1717.31 434.085 1726.1 437.035C1734.89 439.985 1750.81 439.765 1764.7 438.675C1778.59 437.585 1790.39 435.615 1799.9 436.675C1809.41 437.735 1816.63 441.925 1820.24 448.265C1823.85 454.605 1823.85 463.135 1818.82 483.475C1813.79 503.815 1803.73 535.955 1798.27 568.095C1792.81 600.235 1791.92 632.385 1791.16 657.865C1790.4 683.345 1789.74 702.145 1792.47 729.485C1795.2 756.825 1801.33 792.675 1805.7 815.205C1810.07 837.735 1812.7 846.905 1813.55 852.615C1814.4 858.325 1813.55 860.555 1810 860.615C1806.45 860.675 1800.45 858.475 1794.41 860.235C1788.37 861.995 1782.41 867.675 1776.03 869.505C1769.65 871.335 1762.98 869.305 1760.17 872.505C1757.36 875.705 1758.45 884.275 1759.6 894.445C1760.75 904.615 1761.97 916.445 1770.41 920.915C1778.85 925.385 1794.54 922.505 1804.21 920.205C1813.88 917.905 1817.56 916.205 1818.84 911.715C1820.12 907.225 1819.04 900.025 1817.95 893.715C1816.86 887.405 1815.76 881.905 1813.46 878.185C1811.16 874.465 1807.67 872.505 1802.97 874.365C1798.27 876.225 1792.36 881.905 1785.65 884.455C1778.94 887.005 1771.42 886.455 1766.06 878.865C1760.7 871.275 1757.51 856.865 1757.06 833.395C1756.61 809.925 1759.06 777.595 1759.62 739.225C1760.18 700.855 1758.85 656.455 1754.81 628.795C1750.77 601.135 1743.98 590.195 1745.41 573.135C1746.84 556.075 1756.41 532.905 1764.1 520.985C1771.79 509.065 1777.44 508.415 1777.88 518.355C1778.32 528.295 1773.5 548.865 1766.73 574.775C1759.96 600.685 1751.2 631.965 1746.06 657.105C1740.92 682.245 1739.39 701.285 1740.06 727.105C1740.73 752.925 1743.56 785.495 1744.76 811.515C1745.96 837.535 1745.52 856.995 1747.6 878.425C1749.68 899.855 1754.27 923.255 1754.16 936.045C1754.05 948.835 1749.24 951.045 1729.79 951.815C1710.34 952.585 1676.26 951.975 1651.21 951.045C1626.16 950.115 1610.12 948.875 1603.21 944.045C1596.3 939.215 1598.48 930.635 1608.72 926.145C1618.96 921.655 1637.26 921.225 1650.67 916.965C1664.08 912.705 1672.61 904.605 1683.05 903.245C1693.49 901.885 1705.84 907.245 1716.05 907.245C1726.26 907.245 1734.36 902.055 1731.96 898.665C1729.56 895.275 1716.65 893.745 1704.51 893.305C1692.37 892.865 1681.01 893.525 1673.24 889.045C1665.47 884.565 1661.32 874.935 1658.37 867.835C1655.42 860.735 1653.67 856.135 1653.67 850.335C1653.67 844.535 1655.42 837.545 1659.14 822.335C1662.86 807.125 1668.54 783.745 1670.73 755.645C1672.92 727.545 1671.6 694.745 1668.98 664.645C1666.36 634.545 1662.42 607.245 1661.65 587.775C1660.88 568.305 1663.29 556.775 1664.05 549.435C1664.81 542.095 1663.93 539.125 1665.9 538.695C1667.87 538.265 1672.69 540.385 1675.1 546.155C1677.51 551.925 1677.51 561.315 1674.86 568.865C1672.21 576.415 1666.94 582.095 1673.28 594.865C1679.62 607.635 1697.59 627.555 1707.45 652.265C1717.31 676.975 1719.05 706.495 1711.73 735.805C1704.41 765.115 1688 794.185 1681.73 816.715C1675.46 839.245 1679.43 855.195 1690.04 865.035C1700.65 874.875 1717.92 878.595 1728.2 883.035C1738.48 887.475 1741.76 892.765 1742.67 904.435C1743.58 916.105 1742.12 934.175 1749.34 943.025C1756.56 951.875 1772.44 951.525 1877.78 951.335C1983.12 951.145 2177.89 951.155 2372.66 951.155" stroke="#FDFDFD" stroke-width="10" stroke-miterlimit="2.61" stroke-linecap="round"/>
</svg>
