<svg width="476" height="219" viewBox="0 0 476 219" fill="none" xmlns="http://www.w3.org/2000/svg">
<g clip-path="url(#clip0)">
<path d="M212.66 19.08C212.66 19.08 216.23 25.73 218.68 30.51C221.13 35.29 227.77 40.7 230.37 42.04C236.02 44.95 245.39 46.86 252.78 40.91C256.12 38.22 270.4 20.84 269.16 20.81L212.66 19.08Z" fill="#DDD3C8"/>
<path d="M232.36 21.1C232.36 21.1 231.63 19.47 230.77 18.27C229.91 17.06 227.58 15.08 227.58 15.08L227.56 15.11L227.57 14.75C227.57 14.75 222.52 14.96 220.09 15.45C217.66 15.94 212.22 19.35 212.22 19.35L214.04 20.06L227.38 21.47L227.39 21.19L232.36 21.1Z" fill="#BBADA1"/>
<path d="M264.21 21.42C264.21 21.42 275.15 15.02 279.79 12.1C283.6 9.69999 288.11 7.45999 289.61 6.72999C289.82 6.62999 290.07 6.80999 290.02 7.03999C289.78 8.25999 289.1 11.17 287.71 12.81C285.93 14.92 257.67 25.23 257.67 25.23L264.21 21.42Z" fill="#6C5444"/>
<path d="M212.51 18.99C212.69 19.15 213.29 18.95 213.55 18.91C214 18.84 218.11 17.15 218.97 16.87C225.21 14.85 228 16.64 228.19 16.76C230.83 18.41 232.39 21.18 232.49 21.16C232.55 21.15 231.6 16.41 227.27 14.48C226.7 14.23 226.08 13.91 225.37 13.76C223.76 13.44 221.77 13.15 219.63 13.85C217.73 14.46 212.22 18.74 212.51 18.99Z" fill="#CB7F64"/>
<path d="M207.57 20.01C206.86 19.94 210.09 18.91 210.9 18.8C212.28 18.61 212.89 18.62 212.89 18.62L214.02 20.06L213.58 20.87C213.59 20.87 209.28 20.17 207.57 20.01Z" fill="#7C7D7A"/>
<path d="M239.79 34.45C247.23 34.15 252.73 30.58 257.41 27.64C262.47 24.46 263.94 22.72 265.64 21.83C265.82 21.74 267.57 20.44 267.36 20.44L225.81 19.66C220.73 19.52 220.39 19.86 220.4 20.28C220.41 21.03 220.69 21.85 220.9 22.46C221.51 24.24 222.83 25.91 224.07 27.36C227.98 31.96 234.94 34.65 239.79 34.45Z" fill="#C7A690"/>
<path d="M219.52 19.39C219.52 19.36 219.52 19.34 219.52 19.31C219.52 19.28 219.52 19.26 219.51 19.23C219.5 19.14 219.47 19.03 219.42 18.93C219.37 18.83 219.31 18.74 219.24 18.68C219.05 18.52 218.87 18.47 218.79 18.45C218.71 18.43 218.64 18.42 218.56 18.43C218.51 18.43 218.46 18.44 218.41 18.45C218.36 18.46 218.31 18.48 218.27 18.5C218.15 18.55 218.04 18.62 217.95 18.71C217.88 18.78 217.81 18.87 217.76 18.97C217.75 18.99 217.74 19.01 217.73 19.03C217.73 19.04 217.72 19.04 217.72 19.05C217.71 19.07 217.71 19.08 217.7 19.1C217.7 19.11 217.69 19.12 217.69 19.12C217.68 19.14 217.68 19.16 217.67 19.18C217.67 19.19 217.66 19.21 217.66 19.22C217.66 19.23 217.65 19.24 217.65 19.25C217.65 19.26 217.64 19.28 217.64 19.29C217.64 19.3 217.64 19.3 217.64 19.31C217.63 19.35 217.63 19.38 217.62 19.42C217.59 19.71 217.65 20.01 217.84 20.21C217.98 20.35 218.19 20.43 218.37 20.48C218.6 20.54 218.82 20.45 219.02 20.35C219.39 20.19 219.53 19.78 219.52 19.39Z" fill="#312013"/>
<g opacity="0.5">
<path opacity="0.5" d="M257.51 21.73C256.8 22.59 256.11 23.44 255.36 24.29C254.28 25.52 252.88 26.5 251.11 27.29C249.25 28.12 247.7 28.67 246.22 29.04C243.33 29.75 240.65 30.08 238.23 30.01C238.09 30.01 237.95 30 237.8 29.99C235.5 29.88 233.58 29.27 232.17 28.76C229.99 27.96 228.26 26.86 226.88 25.4C225.36 23.79 224.51 21.94 224.23 19.64C223.46 19.63 222.84 19.64 222.34 19.66C222.25 19.89 222.18 20.12 222.17 20.34C222.08 22 222.9 23.49 223.71 24.74C224.77 26.35 226.42 27.7 227.75 28.69C228.39 29.17 229.21 29.59 230.33 30.01C230.64 30.13 230.94 30.24 231.25 30.36C232.73 30.93 234.26 31.52 235.97 31.89C237.66 32.25 239.05 32.44 240.34 32.47C241.77 32.51 243.1 32.37 244.39 32.05C248.21 31.09 251.09 29.99 253.47 28.58C253.74 28.42 254.02 28.26 254.29 28.1C255.55 27.36 256.86 26.6 257.87 25.73C259.83 24.06 261.28 22.66 262.44 21.34C262.78 20.95 262.87 20.64 262.75 20.35L258.6 20.27C258.27 20.76 257.91 21.25 257.51 21.73Z" fill="#C7A690"/>
<path opacity="0.5" d="M229.39 20.65C229.85 22.7 231.6 24.26 234.76 25.42C236.08 25.9 237.39 26.23 238.74 26.43C239.16 26.49 239.55 26.53 239.95 26.54C240.79 26.56 241.6 26.47 242.43 26.27C244.95 25.64 246.77 25.01 248.33 24.23C250.25 23.27 251.65 22.08 252.47 20.69C252.57 20.52 252.7 20.35 252.82 20.18L247.73 20.08C247.67 20.14 247.61 20.22 247.54 20.31L247.52 20.33C246.49 21.56 245.09 22.47 243.26 23.09C242.56 23.33 241.78 23.45 240.81 23.47C240.48 23.48 240.15 23.48 239.84 23.47C237.72 23.41 236.1 23 234.89 22.23C233.57 21.39 232.8 20.65 232.39 19.84C232.38 19.83 232.37 19.82 232.37 19.8L229.23 19.74C229.28 20.04 229.33 20.35 229.39 20.65Z" fill="#C7A690"/>
<path opacity="0.5" d="M225.52 19.66C225.81 21.22 226.15 22.63 227.16 23.93C228.9 26.18 231.09 27.62 234.04 28.45C235.39 28.83 236.86 29.19 238.5 29.24C238.55 29.24 238.61 29.24 238.66 29.24C239.24 29.25 239.86 29.2 240.46 29.16L240.7 29.14C240.88 29.13 241.07 29.1 241.26 29.07C241.5 29.03 241.75 29 242.02 28.99C244.84 28.86 247.2 27.99 249.76 26.95C251.5 26.25 252.89 25.37 253.88 24.34C254.51 23.69 255.05 23.04 255.46 22.54C256.03 21.83 256.58 21.11 257.12 20.4L257.24 20.25L254 20.19C254.01 20.23 254.01 20.27 254 20.32C253.95 20.53 253.87 20.75 253.72 20.96C252.46 22.67 251 23.88 249.11 24.79C247.26 25.68 245.04 26.43 242.12 27.14C241.48 27.3 240.83 27.36 240.14 27.34C239.85 27.33 239.55 27.31 239.24 27.27C235.99 26.85 233.26 25.97 230.89 24.56C229.06 23.47 228.46 22.08 228.11 20.86C228.01 20.5 227.93 20.1 227.87 19.7L225.8 19.66C225.71 19.66 225.62 19.66 225.52 19.66Z" fill="#C7A690"/>
</g>
<path opacity="0.5" d="M243.23 19.99C243 20.19 242.78 20.38 242.53 20.56C242.26 20.76 241.96 20.95 241.64 21.1C241.16 21.33 240.7 21.44 240.27 21.42C239.94 21.41 239.47 21.32 239.11 20.95C238.84 20.67 238.62 20.35 238.49 20.03C238.47 19.98 238.44 19.94 238.41 19.91L233.8 19.82C233.94 20.07 234.14 20.28 234.34 20.47C234.7 20.8 235.11 21.13 235.65 21.51C236.64 22.22 238.01 22.6 239.72 22.65C239.79 22.65 239.86 22.65 239.94 22.65C239.99 22.65 240.04 22.65 240.09 22.65C240.17 22.65 240.25 22.65 240.33 22.65C240.33 22.65 240.49 22.66 240.55 22.66C241.49 22.69 242.48 22.65 243.37 22.21C244.86 21.47 245.8 20.8 246.37 20.05L243.23 19.99Z" fill="#C7A690"/>
<path d="M233.32 50.27C233.18 50.67 233.06 50.91 233.54 51C234.21 51.13 234.8 50.15 235.26 49.48C235.24 49.48 235.23 49.48 235.21 49.48C235.4 49.15 235.51 48.93 235.64 48.72C236.48 47.39 237.34 46.06 238.18 44.73C238.33 44.5 238.62 44.18 238.17 44.01C237.84 43.88 237.44 43.5 237.08 44.12C236.18 45.69 235.19 47.21 234.28 48.78C234.1 49.11 233.42 49.97 233.32 50.27Z" fill="#312013"/>
<path d="M238.73 49.75C238.44 50.09 238.16 50.43 237.96 50.84C237.95 50.87 237.94 50.92 237.93 50.97C237.94 50.98 237.94 50.97 237.96 50.98C238.15 51.09 238.48 51.13 238.69 51.1C239.38 50.99 239.91 50.21 240.37 49.57C240.36 49.57 240.35 49.57 240.34 49.57C240.84 48.76 241.31 48.03 241.74 47.28C242.23 46.43 242.69 45.55 243.14 44.68C243.21 44.54 243.21 44.35 243.19 44.19C243.18 44.13 242.97 44.02 242.91 44.05C242.6 44.22 242.2 44.37 242.03 44.64C241.05 46.16 240.12 47.72 239.16 49.26C239.09 49.34 238.8 49.66 238.73 49.75Z" fill="#312013"/>
<path d="M189.67 97.71C189.17 97.98 188.65 98.18 188.1 98.33C187.55 98.48 186.99 98.57 186.42 98.6C185.15 98.67 183.8 98.48 182.37 98.03C180.94 97.58 179.58 96.79 178.29 95.65C177 94.51 175.89 93.02 174.94 91.15C173.99 89.28 173.38 86.97 173.11 84.2C172.81 81.37 172.94 78.73 173.51 76.3C174.08 73.87 174.94 71.64 176.09 69.63C177.24 67.61 178.62 65.82 180.24 64.25C181.86 62.68 183.6 61.33 185.47 60.17C187.34 59.02 189.26 58.11 191.24 57.45C193.22 56.78 195.15 56.33 197.01 56.1C199.84 55.77 202.78 55.77 205.81 56.1C208.84 56.43 211.8 57.11 214.69 58.13C217.57 59.15 220.32 60.49 222.94 62.16C225.56 63.83 227.88 65.83 229.91 68.16C231.94 70.49 233.6 73.14 234.89 76.11C236.17 79.08 236.95 82.38 237.22 86.01C237.45 89.21 237.28 92.16 236.7 94.86C236.12 97.56 235.27 99.99 234.15 102.16C233.03 104.33 231.73 106.21 230.23 107.81C228.73 109.41 227.16 110.72 225.53 111.73C223.9 112.75 222.28 113.45 220.68 113.83C219.08 114.21 217.62 114.27 216.3 114C214.98 113.73 213.88 113.12 213 112.17C212.12 111.22 211.59 109.91 211.42 108.25C211.32 107.35 211.52 106.58 212.02 105.92C212.52 105.27 213.19 104.84 214.02 104.65C214.85 104.45 215.82 104.5 216.92 104.8C218.02 105.1 219.12 105.73 220.22 106.7C221.25 107.57 222.41 108.4 223.7 109.2C224.98 110 226.22 111.03 227.4 112.28C228.58 113.53 229.62 115.11 230.5 117.03C231.38 118.95 231.92 121.45 232.12 124.55C232.42 128.25 232.26 131.63 231.64 134.7C231.02 137.76 230.07 140.5 228.79 142.91C227.51 145.32 225.93 147.4 224.07 149.16C222.2 150.92 220.19 152.35 218.04 153.45C215.89 154.55 213.65 155.32 211.32 155.75C208.99 156.18 206.7 156.28 204.47 156.05C202.57 155.85 200.79 155.28 199.14 154.33C197.49 153.38 195.93 152.24 194.47 150.91C193 149.58 191.6 148.16 190.27 146.67C188.94 145.18 187.62 143.79 186.32 142.51C185.02 141.23 183.72 140.15 182.42 139.25C181.12 138.35 179.77 137.86 178.37 137.76C177.87 137.73 177.49 137.98 177.25 138.51C177.01 139.04 176.89 139.71 176.92 140.51C176.95 141.31 177.13 142.18 177.45 143.11C177.77 144.04 178.26 144.89 178.92 145.64C179.59 146.39 180.41 146.97 181.4 147.36C182.38 147.76 183.56 147.84 184.92 147.61C185.65 147.51 186.4 146.83 187.15 145.56C187.9 144.29 188.66 142.61 189.42 140.51C190.19 138.41 190.97 135.98 191.77 133.21C192.57 130.44 193.37 127.48 194.17 124.34C194.97 121.19 195.79 117.93 196.62 114.56C197.45 111.19 198.29 107.88 199.12 104.61C199.95 101.34 200.79 98.19 201.64 95.16C202.49 92.13 203.34 89.38 204.19 86.91C205.04 84.44 205.89 82.33 206.74 80.56C207.59 78.79 208.45 77.54 209.32 76.81C210.39 75.88 211.54 75.23 212.79 74.89C214.04 74.55 215.2 74.33 216.27 74.27C217.54 74.2 218.8 74.27 220.07 74.47C220.27 74.47 220.46 74.55 220.64 74.72C220.82 74.89 220.97 75.09 221.09 75.32C221.21 75.55 221.26 75.81 221.26 76.1C221.26 76.39 221.16 76.64 220.96 76.87C218.93 79.3 217.15 82.3 215.63 85.85C214.11 89.4 212.74 93.24 211.51 97.37C210.28 101.5 209.13 105.8 208.06 110.27C206.99 114.74 205.91 119.12 204.81 123.42C203.71 127.72 202.53 131.79 201.26 135.62C199.99 139.45 198.53 142.81 196.88 145.7C195.23 148.59 193.35 150.86 191.23 152.53C189.11 154.2 186.64 155 183.81 154.93C182.68 154.9 181.56 154.57 180.46 153.95C179.36 153.33 178.33 152.53 177.36 151.53C176.39 150.53 175.52 149.4 174.74 148.13C173.96 146.86 173.32 145.56 172.82 144.23C172.32 142.9 171.99 141.6 171.82 140.33C171.65 139.06 171.7 137.92 171.94 136.91C172.19 135.89 172.67 135.08 173.39 134.46C174.11 133.84 175.12 133.52 176.41 133.49C178.08 133.42 179.64 133.81 181.11 134.64C182.58 135.47 183.99 136.51 185.34 137.76C186.69 139.01 188.03 140.37 189.36 141.85C190.69 143.33 192.06 144.7 193.46 145.96C194.86 147.22 196.34 148.28 197.91 149.13C199.48 149.98 201.19 150.4 203.06 150.4C205.76 150.4 208.34 149.8 210.81 148.61C213.28 147.41 215.46 145.8 217.36 143.75C219.26 141.71 220.83 139.32 222.06 136.59C223.29 133.86 224.01 130.95 224.21 127.84C224.41 124.74 224.04 121.54 223.11 118.24C222.18 114.94 220.51 111.71 218.11 108.54C220.54 107.21 222.53 105.45 224.09 103.26C225.64 101.08 226.76 98.67 227.47 96.04C228.17 93.41 228.45 90.64 228.32 87.74C228.19 84.84 227.67 82 226.77 79.21C225.87 76.43 224.59 73.79 222.92 71.31C221.25 68.83 219.22 66.69 216.82 64.88C214.42 63.08 211.68 61.71 208.59 60.75C205.51 59.8 202.08 59.48 198.32 59.78C195.69 60.01 193.19 60.69 190.82 61.81C188.45 62.93 186.41 64.48 184.7 66.48C182.98 68.48 181.7 70.94 180.85 73.86C180 76.78 179.76 80.13 180.12 83.94C180.19 84.57 180.38 85.53 180.7 86.82C181.02 88.1 181.53 89.44 182.25 90.84C182.97 92.24 183.92 93.58 185.13 94.87C186.34 96.16 187.84 97.08 189.67 97.71Z" fill="#B8D1DB"/>
<path d="M237.62 112.11C237.49 111.58 237.6 111.32 237.95 111.34C238.3 111.36 238.77 111.56 239.35 111.94C239.93 112.32 240.58 112.86 241.28 113.56C241.98 114.26 242.64 115.04 243.25 115.89C243.87 116.74 244.37 117.62 244.78 118.54C245.18 119.46 245.38 120.31 245.38 121.11C245.38 121.38 245.28 121.91 245.08 122.71C244.88 123.51 244.61 124.48 244.28 125.61C243.95 126.74 243.58 127.99 243.18 129.34C242.78 130.69 242.39 132.05 242 133.42C241.62 134.79 241.27 136.09 240.95 137.34C240.63 138.59 240.39 139.68 240.22 140.61C240.05 141.48 239.94 142.12 239.87 142.54C239.8 142.96 239.81 143.2 239.9 143.26C239.98 143.33 240.15 143.26 240.4 143.06C240.65 142.86 241.01 142.58 241.47 142.21C242.64 141.28 243.77 140.13 244.87 138.79C245.97 137.44 247 136.01 247.97 134.51C248.94 133.01 249.83 131.5 250.65 129.98C251.47 128.46 252.18 127.07 252.8 125.81C253.42 124.54 253.92 123.46 254.3 122.56C254.68 121.66 254.92 121.09 255.03 120.86C255.5 119.89 255.92 119.3 256.3 119.09C256.68 118.87 256.98 118.91 257.2 119.19C257.42 119.47 257.52 119.96 257.5 120.64C257.48 121.32 257.33 122.1 257.03 122.97C256.6 124.14 256 125.57 255.23 127.27C254.46 128.97 253.56 130.75 252.53 132.62C251.5 134.49 250.35 136.35 249.08 138.22C247.81 140.09 246.49 141.76 245.1 143.24C243.72 144.72 242.28 145.92 240.8 146.84C239.32 147.76 237.84 148.22 236.37 148.22C236 148.22 235.57 148.14 235.07 147.97C234.57 147.8 234.09 147.49 233.62 147.05C233.15 146.6 232.74 145.97 232.4 145.15C232.05 144.33 231.87 143.29 231.87 142.03C231.87 141.76 232.05 141.03 232.42 139.83C232.79 138.63 233.24 137.16 233.8 135.41C234.35 133.66 234.92 131.74 235.5 129.63C236.08 127.53 236.58 125.41 237 123.28C237.42 121.15 237.71 119.11 237.88 117.16C238.04 115.18 237.95 113.51 237.62 112.11ZM241.67 105.71C241.77 104.88 241.95 104.09 242.22 103.36C242.49 102.63 242.8 101.98 243.15 101.44C243.5 100.89 243.88 100.46 244.3 100.14C244.72 99.82 245.12 99.67 245.53 99.67C245.93 99.67 246.28 99.83 246.58 100.14C246.88 100.46 247.12 100.89 247.31 101.44C247.49 101.99 247.6 102.63 247.64 103.36C247.67 104.09 247.64 104.88 247.54 105.71C247.41 106.54 247.2 107.33 246.91 108.06C246.63 108.79 246.3 109.44 245.93 109.98C245.56 110.53 245.17 110.97 244.75 111.31C244.33 111.64 243.93 111.81 243.53 111.81C243.13 111.81 242.78 111.64 242.48 111.31C242.18 110.98 241.95 110.54 241.78 109.98C241.61 109.43 241.51 108.79 241.48 108.06C241.44 107.33 241.5 106.54 241.67 105.71Z" fill="#B8D1DB"/>
<path d="M262.82 145.11C263.62 145.21 264.45 144.96 265.32 144.36C266.19 143.76 267.07 142.93 267.97 141.86C268.87 140.79 269.76 139.56 270.64 138.16C271.52 136.76 272.36 135.32 273.17 133.83C273.98 132.34 274.73 130.86 275.45 129.38C276.17 127.9 276.79 126.55 277.33 125.35C277.86 124.15 278.3 123.14 278.65 122.33C279 121.51 279.21 121.02 279.27 120.85C279.74 119.88 280.16 119.29 280.55 119.08C280.94 118.87 281.23 118.9 281.45 119.18C281.67 119.46 281.77 119.95 281.77 120.63C281.77 121.31 281.6 122.09 281.27 122.96C280.87 124.36 280.3 125.98 279.55 127.84C278.8 129.69 277.93 131.6 276.95 133.56C275.97 135.53 274.89 137.48 273.72 139.41C272.55 141.34 271.34 143.08 270.1 144.61C268.85 146.14 267.57 147.39 266.27 148.36C264.97 149.33 263.72 149.84 262.52 149.91C261.89 149.94 261.14 149.84 260.27 149.61C259.4 149.38 258.56 148.89 257.74 148.16C256.92 147.43 256.22 146.39 255.62 145.06C255.02 143.73 254.65 141.98 254.52 139.81C254.49 139.18 254.55 138.32 254.72 137.23C254.89 136.15 255.12 134.98 255.42 133.73C255.72 132.48 256.05 131.22 256.42 129.96C256.79 128.69 257.13 127.55 257.44 126.54C257.76 125.52 258.03 124.69 258.27 124.04C258.5 123.39 258.64 123.06 258.67 123.06C258.7 123.06 258.44 123.05 257.89 123.04C257.34 123.03 256.69 122.84 255.94 122.49C255.19 122.14 254.47 121.54 253.77 120.69C253.07 119.84 252.6 118.58 252.37 116.92C252.27 116.15 252.3 115.24 252.45 114.17C252.6 113.1 252.83 111.99 253.15 110.82C253.47 109.65 253.87 108.49 254.35 107.35C254.83 106.2 255.37 105.16 255.95 104.23C256.53 103.3 257.17 102.51 257.85 101.88C258.53 101.25 259.23 100.88 259.93 100.78C260.8 100.65 261.54 100.68 262.15 100.88C262.77 101.08 263.26 101.37 263.62 101.76C263.99 102.14 264.24 102.6 264.37 103.14C264.5 103.67 264.52 104.22 264.42 104.79C264.32 105.36 264.04 106.19 263.57 107.29C263.1 108.39 262.6 109.49 262.07 110.59C261.47 111.89 260.79 113.26 260.02 114.69C261.39 114.19 262.65 113.72 263.82 113.29C264.82 112.92 265.82 112.57 266.82 112.21C267.82 111.86 268.59 111.63 269.12 111.54C269.79 111.41 270.31 111.58 270.7 112.07C271.08 112.55 271.34 113.14 271.48 113.84C271.61 114.54 271.63 115.26 271.53 116.01C271.43 116.76 271.23 117.34 270.93 117.74C270.16 118.81 269.32 120.18 268.4 121.86C267.48 123.54 266.61 125.33 265.78 127.24C264.95 129.14 264.2 131.07 263.53 133.04C262.86 135.01 262.36 136.82 262 138.49C261.65 140.16 261.53 141.59 261.62 142.79C261.72 143.96 262.12 144.74 262.82 145.11Z" fill="#B8D1DB"/>
<path d="M274.62 136.61C274.49 135.48 274.5 134.09 274.67 132.46C274.84 130.83 275.15 129.13 275.62 127.36C276.09 125.59 276.73 123.82 277.54 122.04C278.36 120.26 279.37 118.65 280.59 117.21C281.81 115.78 283.22 114.57 284.84 113.59C286.46 112.61 288.3 112.03 290.37 111.86C291.07 111.79 291.74 111.94 292.37 112.29C293 112.64 293.54 113.21 293.99 114.01C294.44 114.81 294.77 115.83 294.96 117.06C295.16 118.29 295.16 119.76 294.96 121.46C294.96 121.63 294.87 121.95 294.69 122.43C294.51 122.91 294.32 123.36 294.14 123.78C293.96 124.2 293.79 124.51 293.64 124.73C293.49 124.95 293.45 124.87 293.52 124.51C293.85 122.38 293.81 120.64 293.4 119.31C292.98 117.98 292.42 117.28 291.72 117.21C290.92 117.11 290.05 117.6 289.1 118.68C288.15 119.76 287.24 121.23 286.38 123.08C285.51 124.93 284.76 127.04 284.13 129.41C283.5 131.78 283.11 134.18 282.98 136.61C282.95 136.88 282.96 137.34 283.03 138.01C283.1 138.68 283.21 139.34 283.38 140.01C283.55 140.68 283.77 141.27 284.05 141.79C284.33 142.31 284.69 142.56 285.13 142.56C285.56 142.56 286.04 142.24 286.55 141.61C287.07 140.98 287.56 140.28 288.03 139.51C288.56 138.61 289.08 137.58 289.58 136.41L291.68 139.21C291.15 140.78 290.46 142.07 289.6 143.09C288.75 144.11 287.83 144.92 286.85 145.54C285.87 146.16 284.88 146.58 283.88 146.81C282.88 147.04 281.96 147.14 281.13 147.11C279.96 147.01 278.99 146.56 278.21 145.76C277.43 144.96 276.79 144.01 276.29 142.91C275.79 141.81 275.41 140.68 275.14 139.51C274.85 138.34 274.69 137.38 274.62 136.61ZM294.87 114.86C294.87 114.89 294.96 114.44 295.15 113.51C295.33 112.58 295.57 111.33 295.85 109.76C296.13 108.19 296.43 106.41 296.75 104.41C297.07 102.41 297.37 100.37 297.65 98.29C297.93 96.21 298.16 94.17 298.32 92.17C298.49 90.17 298.57 88.39 298.57 86.84C298.57 85.29 298.45 84.06 298.19 83.14C297.94 82.22 297.52 81.8 296.91 81.86C296.11 81.96 295.43 82.41 294.86 83.21C294.29 84.01 293.84 85.04 293.51 86.29C293.18 87.54 292.97 88.96 292.89 90.56C292.81 92.16 292.82 93.8 292.94 95.48C293.06 97.16 293.28 98.83 293.61 100.48C293.94 102.13 294.38 103.63 294.91 104.98C295.44 106.33 296.06 107.46 296.76 108.38C297.46 109.3 298.26 109.89 299.16 110.16C299.29 110.23 299.39 110.44 299.44 110.81C299.49 111.18 299.5 111.57 299.46 111.98C299.43 112.4 299.35 112.77 299.24 113.1C299.12 113.43 298.95 113.57 298.71 113.5C297.28 113.1 296.01 112.27 294.91 111C293.81 109.73 292.89 108.19 292.14 106.38C291.39 104.56 290.8 102.56 290.36 100.38C289.93 98.2 289.68 96 289.61 93.8C289.54 91.6 289.65 89.47 289.94 87.42C290.22 85.37 290.68 83.58 291.32 82.04C291.95 80.51 292.77 79.3 293.77 78.42C294.77 77.54 295.95 77.16 297.32 77.3C299.45 77.5 301.11 78.39 302.29 79.97C303.47 81.55 304.3 83.6 304.77 86.12C305.24 88.64 305.39 91.5 305.22 94.72C305.05 97.94 304.71 101.3 304.2 104.8C303.68 108.3 303.05 111.83 302.3 115.38C301.55 118.93 300.79 122.28 300.03 125.43C299.26 128.58 298.55 131.43 297.91 133.98C297.26 136.53 296.8 138.56 296.53 140.06C296.16 141.79 296.11 142.77 296.38 142.98C296.65 143.2 297.23 142.94 298.13 142.21C299.3 141.28 300.43 140.13 301.53 138.79C302.63 137.44 303.66 136.01 304.63 134.51C305.6 133.01 306.49 131.5 307.3 129.98C308.12 128.46 308.83 127.07 309.45 125.81C310.07 124.54 310.57 123.46 310.95 122.56C311.33 121.66 311.57 121.09 311.67 120.86C312.14 119.89 312.56 119.3 312.95 119.09C313.33 118.87 313.63 118.91 313.85 119.19C314.07 119.47 314.17 119.96 314.15 120.64C314.13 121.32 313.97 122.1 313.67 122.97C313.27 124.14 312.68 125.57 311.9 127.27C311.12 128.97 310.21 130.75 309.17 132.62C308.14 134.49 306.99 136.35 305.72 138.22C304.45 140.09 303.13 141.76 301.75 143.24C300.37 144.72 298.93 145.92 297.45 146.84C295.97 147.76 294.49 148.22 293.03 148.22C292.66 148.22 292.23 148.14 291.73 147.97C291.23 147.8 290.74 147.49 290.26 147.05C289.78 146.6 289.36 145.97 289.01 145.15C288.66 144.33 288.48 143.29 288.48 142.03C288.48 141.8 288.61 141.12 288.88 140C289.15 138.88 289.48 137.5 289.88 135.85C290.28 134.2 290.72 132.39 291.21 130.43C291.69 128.46 292.17 126.51 292.63 124.58C293.1 122.65 293.53 120.82 293.93 119.11C294.32 117.37 294.64 115.96 294.87 114.86Z" fill="#B8D1DB"/>
<path d="M302.46 160.9C302.76 159.97 303.46 159.47 304.13 158.86C305.01 158.07 305.67 156.73 305.81 155.59C306.02 153.85 304.72 152.54 305.02 150.83C304.62 152.03 303.84 152.33 303.03 153.14C302.51 153.66 302.14 154.31 301.93 155.01C301.6 156.1 301.62 157.24 302.02 158.3C302.31 159.08 302.73 160.05 302.46 160.9ZM313.27 153.43C313.6 151.74 314.71 150.72 315.77 149.5C317.15 147.92 318.02 145.44 318.03 143.43C318.03 140.35 315.47 138.32 315.64 135.27C315.2 137.45 313.89 138.14 312.64 139.73C311.84 140.75 311.33 141.95 311.1 143.22C310.75 145.19 311.02 147.19 311.95 148.97C312.64 150.27 313.58 151.88 313.27 153.43ZM221.77 201.46C220.17 200.26 218.26 199.61 216.26 199.63C214.78 199.65 212.93 199.77 211.68 198.8C213.04 199.86 213.45 201.31 214.06 202.8C214.85 204.74 216.67 206.64 218.46 207.55C221.21 208.94 224.17 207.57 226.82 209.09C225.07 207.71 225.05 206.23 224.19 204.4C223.65 203.24 222.8 202.23 221.77 201.46ZM284.32 180.63C282.32 180.79 280.46 181.56 278.98 182.91C277.89 183.9 276.58 185.22 275 185.32C276.72 185.22 277.99 186.03 279.43 186.75C281.31 187.68 283.93 187.9 285.87 187.4C288.85 186.62 290.17 183.63 293.16 183.03C290.94 183.16 289.94 182.06 288.09 181.25C286.9 180.71 285.61 180.52 284.32 180.63ZM307.6 170.18C306.77 168.71 305.13 167.38 303.6 166.83C301.26 165.99 299.03 167.39 296.76 166.44C298.29 167.36 298.46 168.54 299.33 169.92C299.89 170.8 300.66 171.52 301.57 172.03C302.97 172.83 304.56 173.16 306.16 172.93C307.34 172.76 308.81 172.48 309.9 173.13C308.71 172.43 308.23 171.31 307.6 170.18ZM322.4 154.95C320.2 153.79 317.8 154.86 315.69 153.59C317.08 154.72 317.08 155.91 317.74 157.4C318.17 158.35 318.84 159.17 319.65 159.81C320.92 160.8 322.45 161.35 324.07 161.36C325.26 161.36 326.76 161.29 327.75 162.09C326.67 161.22 326.36 160.05 325.89 158.84C325.28 157.26 323.84 155.71 322.4 154.95ZM330.24 145.28C328.28 144.54 325.65 144.59 323.76 145.29C320.88 146.37 319.87 149.47 316.95 150.38C319.15 150.03 320.25 151.02 322.17 151.63C323.4 152.03 324.71 152.09 325.98 151.85C327.95 151.49 329.73 150.53 331.06 149.04C332.05 147.94 333.22 146.5 334.78 146.24C333.09 146.53 331.75 145.85 330.24 145.28ZM219.46 185.27C217.54 186.38 216.15 185.86 214.13 185.97C212.84 186.04 211.6 186.46 210.49 187.13C208.78 188.17 207.47 189.7 206.75 191.57C206.22 192.95 205.65 194.71 204.28 195.51C205.77 194.64 207.27 194.79 208.88 194.78C210.97 194.77 213.41 193.78 214.92 192.45C217.24 190.42 217.07 187.16 219.46 185.27ZM287.11 192.38C285.17 190.83 282.6 191.43 280.77 189.79C281.92 191.16 281.7 192.33 282.07 193.92C282.31 194.94 282.81 195.86 283.5 196.64C284.57 197.85 285.97 198.68 287.55 198.98C288.72 199.21 290.2 199.41 291.03 200.38C290.13 199.33 290.04 198.11 289.81 196.84C289.5 195.19 288.38 193.4 287.11 192.38ZM177.93 178.09C176.71 178.93 175.24 180.06 173.66 179.94C175.38 180.06 176.53 181.04 177.86 181.94C179.59 183.11 182.16 183.69 184.16 183.44C187.22 183.07 188.92 180.28 191.97 180.08C189.75 179.91 188.91 178.69 187.18 177.64C186.07 176.97 184.81 176.61 183.53 176.54C181.52 176.44 179.58 176.96 177.93 178.09ZM209.3 165.45C200.22 163.89 190.54 161.94 180.17 159.56C156.53 154.13 135.47 153.43 117.58 155.1L112.4 155.66C73.99 160.35 51.54 175.61 51.54 175.61L52.42 185.59C52.42 185.59 89.24 158.84 150.52 161.79C175.58 201.13 214.44 197.78 214.44 197.78C184.04 197.98 164.77 174.17 157.02 162.21C164.51 162.82 172.32 163.85 180.47 165.44C213.31 171.88 239.46 174.1 260.03 173.03L259.83 174.02C264.85 187.46 283.3 189.09 283.3 189.09C271.66 187.91 264.2 177.39 261.54 172.94C289.61 171.23 307.06 163.26 316.72 151.36C302.88 167.34 274.53 174.44 224.31 167.75" fill="#6C5444"/>
<path d="M18.03 93.26C15.99 93.13 14.34 92.76 13.08 92.16C11.81 91.56 10.83 90.81 10.13 89.91C9.43 89.01 8.96 88.01 8.73 86.91C8.5 85.81 8.38 84.66 8.38 83.46C8.41 80.73 8.77 78.13 9.46 75.66C10.14 73.19 11.15 70.99 12.48 69.06C13.81 67.13 15.44 65.5 17.36 64.18C19.28 62.86 21.48 61.99 23.98 61.55C25.51 61.28 27.22 61.2 29.1 61.3C30.98 61.4 32.89 61.75 34.83 62.35C36.76 62.95 38.64 63.83 40.45 65C42.27 66.17 43.88 67.7 45.3 69.6C46.72 71.5 47.85 73.8 48.7 76.5C49.55 79.2 49.97 82.38 49.97 86.05C49.97 87.82 49.73 90.12 49.24 92.95C48.76 95.78 48.14 98.92 47.39 102.37C46.64 105.82 45.8 109.45 44.87 113.25C43.94 117.05 43.01 120.79 42.1 124.47C41.18 128.15 40.32 131.65 39.5 134.95C38.68 138.25 38.02 141.12 37.5 143.57C36.98 146.02 36.66 147.92 36.52 149.27C36.39 150.62 36.54 151.18 36.97 150.94C37.67 150.57 38.62 149.46 39.82 147.61C41.02 145.76 42.35 143.44 43.82 140.66C45.29 137.88 46.84 134.76 48.47 131.31C50.1 127.86 51.71 124.33 53.28 120.71C54.85 117.09 56.34 113.53 57.74 110.01C59.14 106.49 60.35 103.29 61.35 100.41C62.35 97.53 63.1 95.09 63.58 93.11C64.06 91.13 64.19 89.85 63.96 89.28C64.37 90.38 64.66 91.36 64.82 92.2C64.98 93.05 65.06 93.88 65.06 94.68C65.06 95.48 65.03 96.3 64.96 97.15C64.89 98 64.84 98.98 64.81 100.07C63.41 104.14 61.93 108.4 60.38 112.87C58.83 117.34 57.24 121.74 55.61 126.07C53.98 130.4 52.31 134.53 50.61 138.44C48.91 142.36 47.2 145.8 45.49 148.77C43.77 151.74 42.07 154.08 40.37 155.8C38.67 157.52 36.99 158.34 35.32 158.27C33.62 158.2 32.24 157.69 31.19 156.72C30.14 155.75 29.31 154.64 28.69 153.37C28.07 152.1 27.63 150.82 27.36 149.52C27.09 148.22 26.93 147.19 26.86 146.42C26.69 144.89 26.77 142.95 27.09 140.62C27.41 138.29 27.87 135.72 28.49 132.92C29.11 130.12 29.84 127.16 30.69 124.05C31.54 120.93 32.43 117.81 33.36 114.67C34.29 111.54 35.21 108.48 36.11 105.5C37.01 102.52 37.83 99.76 38.56 97.22C39.29 94.69 39.9 92.46 40.38 90.55C40.86 88.63 41.14 87.16 41.21 86.13C41.41 82.86 41.26 80.11 40.76 77.88C40.26 75.65 39.53 73.82 38.56 72.4C37.59 70.98 36.48 69.91 35.21 69.18C33.94 68.45 32.66 67.95 31.36 67.7C30.06 67.45 28.8 67.39 27.59 67.53C26.37 67.66 25.35 67.86 24.51 68.13C22.74 68.7 21.24 69.62 19.99 70.9C18.74 72.18 17.73 73.63 16.97 75.23C16.2 76.83 15.66 78.5 15.35 80.23C15.03 81.96 14.91 83.58 14.97 85.08C15 85.95 15.12 86.8 15.32 87.63C15.52 88.46 15.76 89.25 16.05 89.98C16.33 90.71 16.64 91.36 16.98 91.93C17.31 92.53 17.66 92.96 18.03 93.26ZM137.22 45.51C132.92 45.18 128.9 45.9 125.17 47.68C121.44 49.46 117.94 52.01 114.69 55.3C111.44 58.59 108.41 62.51 105.59 67.03C102.77 71.55 100.12 76.38 97.64 81.53C95.16 86.68 92.84 91.99 90.69 97.45C88.54 102.91 86.5 108.25 84.57 113.45C82.64 118.65 80.8 123.57 79.07 128.2C77.34 132.83 75.64 136.87 73.99 140.32C72.34 143.77 70.71 146.49 69.12 148.49C67.53 150.49 65.93 151.46 64.32 151.39C63.19 151.36 62.2 151.11 61.34 150.64C60.49 150.17 59.76 149.58 59.17 148.86C58.57 148.14 58.07 147.35 57.67 146.48C57.27 145.61 56.94 144.75 56.67 143.88C56.4 143.01 56.21 142.2 56.09 141.43C55.97 140.66 55.88 140.03 55.82 139.53C55.59 137.46 55.64 135.2 55.97 132.76C56.3 130.31 56.78 127.79 57.39 125.21C58.01 122.63 58.72 120.04 59.51 117.46C60.31 114.88 61.07 112.41 61.79 110.06C62.51 107.71 63.12 105.54 63.64 103.56C64.16 101.58 64.47 99.89 64.57 98.48C64.7 96.31 64.68 94.39 64.49 92.7C64.31 91.02 63.98 89.51 63.51 88.18C65.42 87.35 67.01 87.05 68.28 87.28C69.55 87.51 70.57 88.12 71.32 89.11C72.07 90.09 72.6 91.4 72.9 93.03C73.2 94.66 73.34 96.46 73.3 98.43C73.3 100.2 73.14 102.22 72.82 104.51C72.5 106.79 72.1 109.2 71.61 111.73C71.12 114.26 70.59 116.85 70 119.51C69.41 122.16 68.83 124.72 68.24 127.18C67.65 129.65 67.13 131.95 66.66 134.1C66.19 136.25 65.82 138.09 65.55 139.63C65.28 141.16 65.16 142.33 65.2 143.13C65.23 143.93 65.47 144.21 65.91 143.98C66.75 143.55 67.68 142.43 68.7 140.63C69.72 138.83 70.85 136.51 72.07 133.65C73.29 130.8 74.61 127.52 76.03 123.8C77.45 120.08 78.96 116.11 80.58 111.88C82.2 107.65 83.92 103.23 85.75 98.63C87.58 94.03 89.53 89.44 91.58 84.85C93.63 80.27 95.79 75.76 98.06 71.32C100.33 66.89 102.7 62.71 105.18 58.8C107.66 54.88 110.25 51.31 112.95 48.07C115.65 44.84 118.47 42.12 121.4 39.92C121.83 39.59 122.46 39.22 123.28 38.82C124.1 38.42 125 38.11 125.98 37.9C126.96 37.68 128 37.6 129.08 37.65C130.16 37.7 131.21 37.98 132.23 38.5C133.25 39.02 134.19 39.83 135.06 40.95C135.94 42.1 136.65 43.61 137.22 45.51Z" fill="#B8D1DB"/>
<path d="M93.87 112.11C93.74 111.58 93.85 111.32 94.2 111.34C94.55 111.36 95.02 111.56 95.6 111.94C96.18 112.32 96.83 112.86 97.53 113.56C98.23 114.26 98.89 115.04 99.5 115.89C100.12 116.74 100.62 117.62 101.03 118.54C101.43 119.46 101.63 120.31 101.63 121.11C101.63 121.38 101.53 121.91 101.33 122.71C101.13 123.51 100.86 124.48 100.53 125.61C100.2 126.74 99.83 127.99 99.43 129.34C99.03 130.69 98.64 132.05 98.25 133.42C97.87 134.79 97.52 136.09 97.2 137.34C96.88 138.59 96.64 139.68 96.47 140.61C96.3 141.48 96.19 142.12 96.12 142.54C96.05 142.96 96.06 143.2 96.15 143.26C96.23 143.33 96.4 143.26 96.65 143.06C96.9 142.86 97.26 142.58 97.72 142.21C98.89 141.28 100.02 140.13 101.12 138.79C102.22 137.44 103.25 136.01 104.22 134.51C105.19 133.01 106.08 131.5 106.9 129.98C107.72 128.46 108.43 127.07 109.05 125.81C109.67 124.54 110.17 123.46 110.55 122.56C110.93 121.66 111.17 121.09 111.28 120.86C111.75 119.89 112.17 119.3 112.55 119.09C112.93 118.87 113.23 118.91 113.45 119.19C113.67 119.47 113.77 119.96 113.75 120.64C113.73 121.32 113.58 122.1 113.28 122.97C112.85 124.14 112.25 125.57 111.48 127.27C110.71 128.97 109.81 130.75 108.78 132.62C107.75 134.49 106.6 136.35 105.33 138.22C104.06 140.09 102.74 141.76 101.35 143.24C99.97 144.72 98.53 145.92 97.05 146.84C95.57 147.76 94.09 148.22 92.62 148.22C92.25 148.22 91.82 148.14 91.32 147.97C90.82 147.8 90.34 147.49 89.87 147.05C89.4 146.6 88.99 145.97 88.65 145.15C88.3 144.33 88.12 143.29 88.12 142.03C88.12 141.76 88.3 141.03 88.67 139.83C89.04 138.63 89.49 137.16 90.05 135.41C90.6 133.66 91.17 131.74 91.75 129.63C92.33 127.53 92.83 125.41 93.25 123.28C93.67 121.15 93.96 119.11 94.13 117.16C94.29 115.18 94.2 113.51 93.87 112.11ZM97.92 105.71C98.02 104.88 98.2 104.09 98.47 103.36C98.74 102.63 99.05 101.98 99.4 101.44C99.75 100.89 100.13 100.46 100.55 100.14C100.97 99.82 101.37 99.67 101.78 99.67C102.18 99.67 102.53 99.83 102.83 100.14C103.13 100.46 103.37 100.89 103.56 101.44C103.74 101.99 103.85 102.63 103.88 103.36C103.91 104.09 103.88 104.88 103.78 105.71C103.65 106.54 103.44 107.33 103.16 108.06C102.88 108.79 102.55 109.44 102.18 109.98C101.81 110.53 101.42 110.97 101 111.31C100.58 111.64 100.18 111.81 99.78 111.81C99.38 111.81 99.03 111.64 98.73 111.31C98.43 110.98 98.2 110.54 98.03 109.98C97.86 109.43 97.76 108.79 97.73 108.06C97.69 107.33 97.75 106.54 97.92 105.71Z" fill="#B8D1DB"/>
<path d="M130.82 80.61C132.25 80.51 133.42 80.79 134.32 81.46C135.22 82.13 135.9 82.96 136.37 83.96C136.84 84.96 137.13 86.02 137.25 87.13C137.37 88.25 137.37 89.21 137.28 90.01C136.81 94.11 136 97.79 134.83 101.04C133.66 104.29 132.32 107.13 130.81 109.56C129.29 111.99 127.69 114.04 126.01 115.68C124.33 117.33 122.74 118.61 121.26 119.53C119.78 120.45 118.49 121.01 117.41 121.23C116.33 121.45 115.63 121.34 115.33 120.91C115.3 120.84 115.16 120.68 114.91 120.43C114.66 120.18 114.39 119.9 114.11 119.58C113.83 119.26 113.59 118.94 113.38 118.6C113.18 118.27 113.12 118 113.21 117.8C113.29 117.6 113.56 117.48 114.01 117.45C114.46 117.42 115.2 117.55 116.24 117.85C117.14 118.12 118.17 117.96 119.34 117.38C120.51 116.8 121.72 115.9 122.96 114.68C124.21 113.46 125.46 111.95 126.71 110.13C127.96 108.31 129.13 106.29 130.23 104.05C131.33 101.82 132.31 99.41 133.18 96.83C134.05 94.25 134.7 91.57 135.13 88.8C135.3 87.77 135.23 87.18 134.93 87.05C134.63 86.92 134.25 87.02 133.78 87.35C133.31 87.68 132.82 88.14 132.3 88.73C131.78 89.31 131.39 89.81 131.12 90.21C130.42 91.31 129.57 92.72 128.57 94.43C127.57 96.15 126.52 98.14 125.42 100.41C124.32 102.68 123.24 105.19 122.17 107.96C121.1 110.73 120.15 113.7 119.32 116.88C118.49 120.06 117.8 123.44 117.27 127C116.74 130.57 116.49 134.27 116.52 138.1C116.52 138.8 116.55 139.51 116.62 140.22C116.69 140.94 116.8 141.57 116.95 142.12C117.1 142.67 117.3 143.12 117.55 143.47C117.8 143.82 118.09 144 118.43 144C119 144 119.67 143.65 120.45 142.95C121.23 142.25 122.06 141.33 122.93 140.2C123.8 139.07 124.69 137.77 125.6 136.3C126.52 134.83 127.41 133.33 128.28 131.8C129.15 130.27 129.97 128.77 130.75 127.3C131.53 125.83 132.23 124.51 132.83 123.33C133.43 122.15 133.91 121.17 134.28 120.41C134.65 119.64 134.86 119.23 134.93 119.16C135.16 118.79 135.41 118.56 135.66 118.46C135.91 118.36 136.13 118.38 136.33 118.54C136.53 118.69 136.68 118.96 136.78 119.36C136.88 119.76 136.88 120.28 136.78 120.91C136.75 121.04 136.55 121.55 136.2 122.43C135.85 123.31 135.36 124.41 134.72 125.73C134.09 127.05 133.34 128.54 132.49 130.21C131.64 131.88 130.72 133.56 129.72 135.26C128.72 136.96 127.66 138.62 126.55 140.23C125.43 141.85 124.3 143.28 123.15 144.53C122 145.78 120.84 146.79 119.67 147.55C118.5 148.32 117.37 148.7 116.27 148.7C115.67 148.7 114.91 148.55 113.99 148.25C113.07 147.95 112.19 147.32 111.34 146.35C110.49 145.38 109.77 144 109.19 142.2C108.61 140.4 108.31 138 108.31 135C108.31 132.9 108.46 130.52 108.76 127.85C109.06 125.18 109.48 122.4 110.03 119.5C110.58 116.6 111.25 113.63 112.03 110.6C112.81 107.57 113.7 104.63 114.7 101.8C115.7 98.97 116.79 96.28 117.97 93.75C119.15 91.22 120.43 89 121.8 87.1C123.17 85.2 124.6 83.67 126.1 82.5C127.62 81.34 129.19 80.71 130.82 80.61Z" fill="#B8D1DB"/>
<path d="M129.92 136.61C129.79 135.48 129.8 134.09 129.97 132.46C130.14 130.83 130.45 129.13 130.92 127.36C131.39 125.59 132.03 123.82 132.84 122.04C133.66 120.26 134.67 118.65 135.89 117.21C137.11 115.78 138.52 114.57 140.14 113.59C141.76 112.61 143.6 112.03 145.66 111.86C146.36 111.79 147.03 111.94 147.66 112.29C148.29 112.64 148.83 113.21 149.28 114.01C149.73 114.81 150.05 115.83 150.26 117.06C150.46 118.29 150.46 119.76 150.26 121.46C150.26 121.63 150.17 121.95 149.99 122.43C149.81 122.91 149.62 123.36 149.44 123.78C149.26 124.2 149.09 124.51 148.94 124.73C148.79 124.95 148.75 124.87 148.82 124.51C149.15 122.38 149.11 120.64 148.7 119.31C148.28 117.98 147.72 117.28 147.03 117.21C146.23 117.11 145.35 117.6 144.41 118.68C143.46 119.76 142.55 121.23 141.68 123.08C140.81 124.93 140.06 127.04 139.43 129.41C138.8 131.78 138.41 134.18 138.28 136.61C138.25 136.88 138.26 137.34 138.33 138.01C138.4 138.68 138.51 139.34 138.68 140.01C138.85 140.68 139.07 141.27 139.35 141.79C139.63 142.31 139.99 142.56 140.43 142.56C140.86 142.56 141.34 142.24 141.85 141.61C142.37 140.98 142.86 140.28 143.33 139.51C143.86 138.61 144.38 137.58 144.88 136.41L146.98 139.21C146.45 140.78 145.76 142.07 144.91 143.09C144.06 144.11 143.14 144.92 142.16 145.54C141.18 146.16 140.18 146.58 139.18 146.81C138.18 147.04 137.26 147.14 136.43 147.11C135.26 147.01 134.29 146.56 133.51 145.76C132.73 144.96 132.08 144.01 131.58 142.91C131.08 141.81 130.7 140.68 130.43 139.51C130.15 138.34 129.99 137.38 129.92 136.61ZM150.17 114.86C150.17 114.89 150.26 114.44 150.44 113.51C150.62 112.58 150.86 111.33 151.14 109.76C151.42 108.19 151.72 106.41 152.04 104.41C152.36 102.41 152.66 100.37 152.94 98.29C153.22 96.21 153.45 94.17 153.62 92.17C153.79 90.17 153.87 88.39 153.87 86.84C153.87 85.29 153.75 84.06 153.49 83.14C153.24 82.22 152.81 81.8 152.21 81.86C151.41 81.96 150.73 82.41 150.16 83.21C149.59 84.01 149.14 85.04 148.81 86.29C148.48 87.54 148.27 88.96 148.19 90.56C148.11 92.16 148.12 93.8 148.24 95.48C148.36 97.16 148.58 98.83 148.91 100.48C149.24 102.13 149.68 103.63 150.21 104.98C150.74 106.33 151.36 107.46 152.06 108.38C152.76 109.3 153.56 109.89 154.46 110.16C154.59 110.23 154.69 110.44 154.74 110.81C154.79 111.18 154.8 111.57 154.76 111.98C154.73 112.4 154.65 112.77 154.53 113.1C154.41 113.43 154.24 113.57 154.01 113.5C152.58 113.1 151.31 112.27 150.21 111C149.11 109.73 148.19 108.19 147.44 106.38C146.69 104.56 146.1 102.56 145.67 100.38C145.24 98.2 144.99 96 144.92 93.8C144.85 91.6 144.96 89.47 145.25 87.42C145.53 85.37 145.99 83.58 146.63 82.04C147.26 80.51 148.08 79.3 149.08 78.42C150.08 77.54 151.26 77.16 152.63 77.3C154.76 77.5 156.42 78.39 157.6 79.97C158.78 81.55 159.61 83.6 160.08 86.12C160.55 88.64 160.7 91.5 160.53 94.72C160.36 97.94 160.02 101.3 159.51 104.8C158.99 108.3 158.36 111.83 157.61 115.38C156.86 118.93 156.1 122.28 155.34 125.43C154.57 128.58 153.86 131.43 153.22 133.98C152.57 136.53 152.11 138.56 151.84 140.06C151.47 141.79 151.42 142.77 151.69 142.98C151.96 143.2 152.54 142.94 153.44 142.21C154.61 141.28 155.74 140.13 156.84 138.79C157.94 137.44 158.97 136.01 159.94 134.51C160.91 133.01 161.8 131.5 162.61 129.98C163.43 128.46 164.14 127.07 164.76 125.81C165.38 124.54 165.88 123.46 166.26 122.56C166.64 121.66 166.88 121.09 166.98 120.86C167.45 119.89 167.87 119.3 168.26 119.09C168.64 118.87 168.94 118.91 169.16 119.19C169.38 119.47 169.48 119.96 169.46 120.64C169.44 121.32 169.29 122.1 168.98 122.97C168.58 124.14 167.99 125.57 167.21 127.27C166.43 128.97 165.52 130.75 164.48 132.62C163.45 134.49 162.3 136.35 161.03 138.22C159.76 140.09 158.44 141.76 157.05 143.24C155.67 144.72 154.23 145.92 152.75 146.84C151.27 147.76 149.79 148.22 148.32 148.22C147.95 148.22 147.52 148.14 147.02 147.97C146.52 147.8 146.03 147.49 145.54 147.05C145.06 146.6 144.64 145.97 144.29 145.15C143.94 144.33 143.77 143.29 143.77 142.03C143.77 141.8 143.9 141.12 144.17 140C144.44 138.88 144.77 137.5 145.17 135.85C145.57 134.2 146.01 132.39 146.5 130.43C146.98 128.46 147.46 126.51 147.92 124.58C148.39 122.65 148.82 120.82 149.22 119.11C149.62 117.37 149.94 115.96 150.17 114.86Z" fill="#B8D1DB"/>
<path d="M319.22 100.66C316.15 99.63 313.9 98.21 312.47 96.41C311.04 94.61 310.24 92.66 310.09 90.56C309.94 88.46 310.31 86.32 311.21 84.14C312.11 81.96 313.34 79.97 314.91 78.17C316.48 76.37 318.27 74.89 320.29 73.72C322.31 72.55 324.35 71.9 326.41 71.77C328.28 71.67 330.11 71.94 331.91 72.57C333.71 73.2 335.49 74.1 337.24 75.24C338.99 76.39 340.73 77.72 342.47 79.22C344.2 80.72 345.95 82.26 347.72 83.84C349.49 85.42 351.28 86.99 353.1 88.54C354.92 90.09 356.78 91.49 358.7 92.74C360.62 93.99 362.6 95.02 364.65 95.82C366.7 96.62 368.84 97.07 371.07 97.17C372.57 97.24 373.93 96.94 375.15 96.27C376.37 95.6 377.43 94.69 378.35 93.55C379.27 92.4 380.02 91.07 380.6 89.57C381.18 88.07 381.59 86.51 381.82 84.9C382.05 83.28 382.1 81.68 381.97 80.1C381.84 78.52 381.49 77.07 380.92 75.77C380.35 74.47 379.58 73.38 378.6 72.49C377.62 71.61 376.41 71.07 374.98 70.87C373.95 70.74 372.7 70.98 371.23 71.6C369.76 72.22 368.18 73.19 366.48 74.52C364.78 75.85 363.02 77.55 361.2 79.6C359.38 81.65 357.62 84.03 355.9 86.75C354.18 89.47 352.57 92.5 351.07 95.85C349.57 99.2 348.29 102.87 347.22 106.85C346.15 110.83 345.36 115.1 344.84 119.65C344.32 124.2 344.2 129.04 344.46 134.18C344.49 134.81 344.54 135.74 344.61 136.95C344.68 138.17 344.82 139.48 345.03 140.87C345.25 142.27 345.57 143.7 346.01 145.15C346.44 146.6 347.04 147.88 347.81 149C348.58 150.12 349.54 150.98 350.71 151.58C351.88 152.18 353.29 152.36 354.96 152.13C356.89 151.86 358.74 151.22 360.51 150.21C362.28 149.19 363.94 147.94 365.51 146.46C367.08 144.98 368.53 143.33 369.89 141.51C371.24 139.69 372.49 137.85 373.64 135.99C374.79 134.12 375.81 132.3 376.69 130.51C377.57 128.73 378.34 127.13 378.99 125.71C379.64 124.29 380.15 123.12 380.52 122.19C380.89 121.26 381.12 120.72 381.22 120.59C381.35 120.29 381.54 120.1 381.79 120.01C382.04 119.93 382.28 119.94 382.52 120.04C382.75 120.14 382.94 120.36 383.1 120.69C383.25 121.02 383.31 121.47 383.27 122.04C383.27 122.21 383.09 122.87 382.72 124.04C382.35 125.21 381.82 126.67 381.12 128.44C380.42 130.21 379.55 132.19 378.52 134.39C377.49 136.59 376.3 138.82 374.97 141.07C373.64 143.32 372.16 145.52 370.54 147.67C368.92 149.82 367.16 151.72 365.27 153.37C363.37 155.02 361.35 156.34 359.19 157.32C357.04 158.3 354.77 158.76 352.36 158.7C350.16 158.63 347.98 158 345.81 156.8C343.64 155.6 341.67 153.81 339.89 151.42C338.11 149.04 336.63 146.06 335.47 142.5C334.3 138.93 333.64 134.73 333.47 129.9C333.27 124.47 333.53 118.99 334.24 113.48C334.96 107.96 336.07 102.67 337.59 97.6C339.11 92.53 340.98 87.81 343.21 83.43C345.44 79.05 347.95 75.25 350.73 72.03C353.51 68.81 356.55 66.31 359.83 64.51C363.11 62.71 366.55 61.86 370.15 61.96C373.15 62.06 375.7 62.69 377.8 63.86C379.9 65.03 381.59 66.53 382.88 68.39C384.16 70.24 385.07 72.33 385.6 74.66C386.13 76.99 386.34 79.37 386.22 81.78C386.1 84.2 385.68 86.56 384.95 88.86C384.22 91.16 383.23 93.22 382 95.03C380.77 96.85 379.3 98.31 377.6 99.43C375.9 100.55 374.03 101.12 372 101.15C370.1 101.18 368.18 100.85 366.25 100.15C364.32 99.45 362.37 98.51 360.4 97.33C358.43 96.15 356.46 94.81 354.48 93.33C352.5 91.85 350.54 90.35 348.6 88.85C346.67 87.35 344.76 85.9 342.88 84.5C341 83.1 339.15 81.9 337.35 80.9C335.55 79.9 333.8 79.18 332.1 78.73C330.4 78.28 328.78 78.26 327.25 78.65C325.35 79.12 323.73 79.9 322.4 81C321.07 82.1 319.99 83.38 319.18 84.83C318.36 86.28 317.8 87.84 317.48 89.5C317.16 91.17 317.07 92.78 317.21 94.35C317.34 95.52 317.59 96.66 317.96 97.77C318.33 98.85 318.75 99.83 319.22 100.66Z" fill="#B8D1DB"/>
<path d="M375.77 136.61C375.67 135.48 375.69 134.09 375.85 132.46C376 130.83 376.32 129.13 376.8 127.36C377.28 125.59 377.93 123.82 378.75 122.04C379.57 120.26 380.58 118.65 381.8 117.21C383.02 115.78 384.43 114.57 386.05 113.59C387.67 112.61 389.51 112.03 391.58 111.86C392.25 111.79 392.9 111.94 393.53 112.29C394.16 112.64 394.7 113.21 395.15 114.01C395.6 114.81 395.92 115.83 396.12 117.06C396.32 118.29 396.32 119.76 396.12 121.46C396.12 121.63 396.04 121.95 395.87 122.43C395.7 122.91 395.52 123.36 395.32 123.78C395.12 124.2 394.94 124.51 394.79 124.73C394.64 124.95 394.6 124.87 394.67 124.51C394.84 123.44 394.9 122.47 394.87 121.59C394.84 120.71 394.73 119.95 394.54 119.31C394.36 118.68 394.12 118.18 393.84 117.81C393.56 117.44 393.25 117.24 392.91 117.21C392.11 117.11 391.23 117.6 390.26 118.68C389.29 119.76 388.38 121.23 387.51 123.08C386.64 124.93 385.89 127.04 385.26 129.41C384.63 131.78 384.24 134.18 384.11 136.61C384.11 136.88 384.14 137.34 384.19 138.01C384.24 138.68 384.36 139.34 384.54 140.01C384.72 140.68 384.96 141.27 385.24 141.79C385.52 142.31 385.88 142.56 386.32 142.56C386.75 142.56 387.23 142.24 387.74 141.61C388.26 140.98 388.75 140.28 389.22 139.51C389.75 138.61 390.27 137.58 390.77 136.41L392.87 139.21C392.3 140.78 391.6 142.07 390.75 143.09C389.9 144.11 388.98 144.92 388 145.54C387.02 146.16 386.03 146.58 385.05 146.81C384.07 147.04 383.16 147.14 382.33 147.11C381.16 147.01 380.18 146.56 379.38 145.76C378.58 144.96 377.93 144.01 377.43 142.91C376.93 141.81 376.55 140.68 376.28 139.51C376 138.34 375.84 137.38 375.77 136.61ZM396.42 112.91C396.45 112.41 396.65 112.13 397 112.06C397.35 111.99 397.77 112.1 398.25 112.39C398.73 112.68 399.24 113.09 399.78 113.64C400.31 114.19 400.81 114.82 401.28 115.54C401.75 116.26 402.12 117.02 402.4 117.84C402.68 118.66 402.82 119.46 402.82 120.26C402.82 120.53 402.71 121.07 402.49 121.88C402.27 122.7 402.01 123.69 401.69 124.85C401.37 126.02 401.02 127.29 400.61 128.68C400.21 130.06 399.83 131.44 399.46 132.8C399.09 134.17 398.75 135.48 398.43 136.75C398.11 138.02 397.87 139.12 397.71 140.05C397.34 141.78 397.29 142.76 397.56 142.97C397.83 143.19 398.39 142.93 399.26 142.2C400.43 141.27 401.59 140.09 402.73 138.67C403.88 137.25 404.97 135.74 406.01 134.12C407.04 132.5 408 130.87 408.89 129.22C409.77 127.57 410.55 126.05 411.22 124.67C411.89 123.29 412.44 122.11 412.87 121.15C413.3 120.18 413.57 119.58 413.67 119.35C414.1 118.38 414.51 117.79 414.9 117.58C415.28 117.36 415.58 117.4 415.8 117.68C416.02 117.96 416.13 118.45 416.13 119.13C416.13 119.81 415.96 120.59 415.63 121.46C415.2 122.63 414.58 124.09 413.78 125.86C412.98 127.63 412.03 129.5 410.93 131.48C409.83 133.46 408.61 135.46 407.28 137.46C405.95 139.46 404.56 141.25 403.13 142.84C401.7 144.42 400.22 145.72 398.71 146.72C397.19 147.72 395.7 148.22 394.24 148.22C393.87 148.22 393.43 148.14 392.91 147.97C392.39 147.8 391.9 147.49 391.43 147.05C390.96 146.6 390.55 145.97 390.21 145.15C389.86 144.33 389.67 143.29 389.63 142.03C389.63 141.83 389.72 141.3 389.91 140.43C390.09 139.56 390.34 138.5 390.66 137.23C390.98 135.96 391.33 134.53 391.71 132.93C392.09 131.33 392.49 129.7 392.91 128.03C393.33 126.36 393.74 124.71 394.13 123.08C394.53 121.45 394.9 119.95 395.23 118.58C395.56 117.21 395.84 116.03 396.05 115.03C396.26 114.03 396.38 113.31 396.42 112.91Z" fill="#B8D1DB"/>
<path d="M409.02 175.71C409.79 176.14 410.53 175.88 411.24 174.93C411.95 173.98 412.6 172.55 413.16 170.66C413.73 168.76 414.2 166.53 414.58 163.96C414.96 161.39 415.19 158.69 415.26 155.86C415.33 153.03 415.21 150.2 414.91 147.39C414.61 144.58 414.08 141.98 413.31 139.61C412.54 137.24 411.52 135.21 410.23 133.51C408.94 131.81 407.35 130.69 405.45 130.16C405.05 130.06 404.78 129.77 404.63 129.28C404.48 128.8 404.44 128.32 404.51 127.85C404.58 127.38 404.76 126.99 405.06 126.68C405.36 126.36 405.76 126.32 406.26 126.56C406.36 126.59 406.77 126.8 407.48 127.18C408.2 127.56 409.13 127.99 410.28 128.46C411.43 128.93 412.75 129.38 414.23 129.84C415.71 130.29 417.28 130.61 418.93 130.79C420.58 130.97 422.26 130.96 423.98 130.76C425.7 130.56 427.36 130.04 428.95 129.21C430.55 128.38 432.04 127.18 433.43 125.61C434.81 124.04 436.01 121.98 437.01 119.41C437.14 119.04 437.33 118.87 437.58 118.88C437.83 118.9 438.07 119 438.31 119.21C438.54 119.41 438.73 119.65 438.86 119.93C438.99 120.21 439.04 120.42 439.01 120.55C438.11 122.98 437.06 125.04 435.86 126.72C434.66 128.4 433.38 129.79 432.01 130.87C430.64 131.95 429.23 132.78 427.78 133.34C426.33 133.91 424.92 134.31 423.56 134.54C420.33 135.07 416.96 134.86 413.46 133.89C414.29 135.12 415 136.76 415.58 138.79C416.16 140.82 416.61 143.09 416.93 145.59C417.25 148.09 417.41 150.72 417.43 153.49C417.45 156.26 417.32 158.97 417.05 161.64C416.78 164.31 416.37 166.82 415.8 169.19C415.23 171.56 414.51 173.6 413.63 175.31C412.75 177.03 411.71 178.32 410.53 179.19C409.35 180.06 408.01 180.32 406.51 179.99C406.08 179.89 405.63 179.65 405.16 179.27C404.69 178.89 404.26 178.35 403.86 177.67C403.46 176.99 403.11 176.17 402.81 175.22C402.51 174.27 402.31 173.18 402.21 171.95C401.94 169.18 402.01 165.83 402.41 161.9C402.81 157.97 403.43 153.72 404.26 149.15C405.09 144.58 406.09 139.82 407.26 134.87C408.43 129.92 409.64 125.04 410.91 120.25C411.81 116.92 412.78 113.64 413.81 110.42C414.84 107.2 415.94 104.15 417.11 101.25C418.28 98.35 419.48 95.67 420.71 93.2C421.94 90.73 423.2 88.59 424.49 86.78C425.78 84.97 427.07 83.53 428.39 82.48C429.71 81.43 431 80.87 432.27 80.81C433.7 80.68 434.83 80.96 435.65 81.66C436.47 82.36 437.07 83.28 437.47 84.41C437.87 85.54 438.13 86.82 438.25 88.23C438.37 89.65 438.44 91.01 438.47 92.31C438.5 95.01 438.25 97.6 437.7 100.09C437.15 102.58 436.41 104.9 435.47 107.06C434.54 109.23 433.45 111.2 432.22 112.98C430.99 114.76 429.72 116.29 428.42 117.56C427.12 118.83 425.82 119.81 424.52 120.51C423.22 121.21 422.04 121.58 420.97 121.61C419.34 121.68 417.85 121.37 416.52 120.69C415.19 120.01 414.03 119.21 413.04 118.29C412.05 117.37 411.28 116.46 410.71 115.54C410.14 114.62 409.81 113.95 409.71 113.51C409.48 112.61 409.37 111.98 409.39 111.63C409.41 111.28 409.61 111.19 410.01 111.35C410.11 111.42 410.31 111.64 410.61 112.03C410.91 112.42 411.29 112.88 411.76 113.43C412.23 113.98 412.76 114.56 413.36 115.18C413.96 115.8 414.64 116.35 415.39 116.85C416.14 117.35 416.94 117.77 417.79 118.1C418.64 118.43 419.53 118.58 420.46 118.55C421.86 118.48 423.22 117.97 424.54 117.03C425.86 116.08 427.1 114.85 428.27 113.33C429.44 111.81 430.51 110.1 431.49 108.21C432.47 106.31 433.32 104.38 434.02 102.43C434.72 100.48 435.27 98.59 435.67 96.76C436.07 94.93 436.29 93.31 436.32 91.91C436.32 91.21 436.26 90.57 436.15 89.98C436.03 89.4 435.87 88.89 435.67 88.46C435.47 88.03 435.26 87.7 435.05 87.48C434.83 87.26 434.63 87.19 434.43 87.26C434.16 87.33 433.72 87.84 433.1 88.81C432.48 89.78 431.75 91.09 430.9 92.73C430.05 94.38 429.09 96.35 428.02 98.63C426.95 100.91 425.85 103.41 424.72 106.13C423.59 108.85 422.43 111.72 421.25 114.75C420.07 117.78 418.92 120.9 417.83 124.1C416.5 127.97 415.25 131.86 414.08 135.78C412.91 139.7 411.88 143.5 410.98 147.18C410.08 150.86 409.32 154.34 408.71 157.6C408.09 160.87 407.68 163.77 407.48 166.3C407.28 168.83 407.3 170.92 407.53 172.58C407.75 174.23 408.25 175.28 409.02 175.71Z" fill="#B8D1DB"/>
<path d="M463.67 120.01C463.14 121.58 462.4 123.39 461.47 125.46C460.54 127.53 459.45 129.65 458.22 131.83C456.99 134.01 455.64 136.16 454.19 138.28C452.74 140.4 451.25 142.26 449.72 143.88C448.19 145.5 446.64 146.79 445.1 147.76C443.56 148.73 442.07 149.16 440.68 149.06C438.58 148.93 436.82 148.43 435.4 147.56C433.98 146.69 432.85 145.63 432 144.36C431.15 143.09 430.53 141.73 430.15 140.26C429.77 138.79 429.54 137.38 429.48 136.01C429.28 132.88 429.6 129.89 430.43 127.04C431.26 124.19 432.43 121.66 433.93 119.46C435.43 117.26 437.14 115.5 439.05 114.18C440.97 112.86 442.91 112.17 444.88 112.1C446.48 112.03 447.72 112.25 448.6 112.75C449.48 113.25 450.13 113.87 450.55 114.6C450.97 115.33 451.2 116.12 451.25 116.95C451.3 117.78 451.31 118.5 451.27 119.1C451.17 120.4 450.9 121.62 450.47 122.75C450.04 123.88 449.5 124.92 448.85 125.87C448.2 126.82 447.48 127.69 446.7 128.47C445.92 129.25 445.13 129.95 444.32 130.55C442.45 131.98 440.35 133.17 438.02 134.1C437.09 133.1 436.42 132.25 436.02 131.55C435.85 131.25 435.73 130.97 435.64 130.7C435.55 130.43 435.56 130.22 435.67 130.05C435.77 129.88 435.97 129.78 436.27 129.72C436.57 129.67 437.02 129.71 437.62 129.84C438.72 130.11 439.89 129.87 441.12 129.14C442.35 128.41 443.51 127.45 444.59 126.27C445.67 125.09 446.6 123.8 447.37 122.42C448.14 121.04 448.59 119.83 448.72 118.8C448.79 118.5 448.8 118.18 448.77 117.85C448.74 117.52 448.67 117.23 448.57 116.97C448.47 116.72 448.32 116.53 448.12 116.4C447.92 116.27 447.69 116.23 447.42 116.3C446.95 116.43 446.4 116.87 445.77 117.6C445.14 118.33 444.5 119.28 443.85 120.43C443.2 121.58 442.56 122.91 441.93 124.41C441.3 125.91 440.73 127.49 440.23 129.16C439.73 130.83 439.32 132.54 439.01 134.31C438.69 136.08 438.53 137.79 438.53 139.46C438.56 141.13 438.79 142.43 439.2 143.38C439.61 144.33 440.36 144.72 441.43 144.55C442.23 144.42 443.1 144.13 444.03 143.67C444.96 143.22 445.91 142.64 446.88 141.92C447.85 141.2 448.8 140.34 449.76 139.32C450.71 138.3 451.62 137.15 452.48 135.84C453.41 134.44 454.36 132.87 455.31 131.14C456.26 129.41 457.15 127.69 457.98 125.99C458.81 124.29 459.56 122.71 460.2 121.27C460.85 119.82 461.34 118.69 461.68 117.89C462.15 116.92 462.57 116.33 462.95 116.11C463.33 115.89 463.63 115.94 463.85 116.23C464.07 116.52 464.18 117.02 464.18 117.7C464.17 118.42 464 119.18 463.67 120.01Z" fill="#B8D1DB"/>
<path d="M172.94 39.45C173.34 38.39 173.36 37.25 173.03 36.16C172.82 35.46 172.44 34.81 171.93 34.29C171.12 33.48 170.33 33.18 169.94 31.98C170.24 33.69 168.94 35 169.15 36.74C169.29 37.87 169.95 39.21 170.83 40.01C171.51 40.62 172.2 41.12 172.5 42.05C172.22 41.2 172.64 40.23 172.94 39.45ZM163 30.11C163.93 28.33 164.2 26.34 163.85 24.36C163.63 23.09 163.11 21.88 162.31 20.87C161.06 19.28 159.75 18.59 159.31 16.41C159.48 19.46 156.92 21.49 156.92 24.57C156.92 26.58 157.8 29.06 159.18 30.64C160.24 31.86 161.35 32.87 161.68 34.57C161.37 33.02 162.31 31.42 163 30.11ZM250.76 85.55C249.91 87.38 249.88 88.86 248.13 90.24C250.77 88.72 253.74 90.09 256.49 88.7C258.29 87.79 260.11 85.89 260.89 83.95C261.5 82.46 261.91 81.01 263.27 79.95C262.02 80.92 260.17 80.8 258.69 80.78C256.69 80.75 254.78 81.4 253.18 82.61C252.15 83.38 251.3 84.38 250.76 85.55ZM186.86 62.38C185 63.19 184.01 64.29 181.79 64.16C184.78 64.77 186.1 67.76 189.08 68.53C191.03 69.04 193.65 68.81 195.52 67.88C196.96 67.16 198.23 66.35 199.95 66.45C198.37 66.36 197.06 65.04 195.97 64.04C194.49 62.7 192.63 61.93 190.63 61.76C189.34 61.67 188.05 61.86 186.86 62.38ZM165.05 54.28C166.14 53.63 167.61 53.91 168.79 54.08C170.39 54.31 171.98 53.98 173.38 53.18C174.28 52.67 175.06 51.95 175.62 51.07C176.49 49.69 176.66 48.51 178.19 47.59C175.92 48.54 173.69 47.14 171.35 47.98C169.82 48.52 168.18 49.86 167.35 51.33C166.72 52.46 166.24 53.57 165.05 54.28ZM149.06 39.98C148.59 41.19 148.28 42.36 147.2 43.23C148.19 42.43 149.69 42.5 150.88 42.5C152.49 42.49 154.02 41.95 155.3 40.95C156.12 40.32 156.79 39.5 157.21 38.54C157.87 37.05 157.87 35.86 159.26 34.73C157.15 35.99 154.74 34.93 152.55 36.09C151.11 36.85 149.67 38.41 149.06 39.98ZM140.16 27.4C141.72 27.65 142.89 29.1 143.88 30.2C145.22 31.69 146.99 32.65 148.96 33.01C150.23 33.24 151.54 33.18 152.77 32.79C154.7 32.17 155.8 31.19 157.99 31.54C155.08 30.63 154.07 27.53 151.18 26.45C149.29 25.75 146.66 25.7 144.7 26.44C143.2 26.99 141.86 27.68 140.16 27.4ZM260.02 73.6C261.53 74.93 263.97 75.92 266.06 75.93C267.67 75.94 269.17 75.78 270.66 76.66C269.3 75.86 268.72 74.09 268.19 72.72C267.47 70.85 266.16 69.32 264.45 68.28C263.35 67.61 262.1 67.19 260.81 67.12C258.79 67.01 257.41 67.53 255.48 66.42C257.88 68.3 257.71 71.57 260.02 73.6ZM185.14 78C184.91 79.28 184.82 80.49 183.92 81.54C184.74 80.57 186.23 80.36 187.4 80.14C188.98 79.83 190.38 79.01 191.45 77.8C192.13 77.02 192.64 76.09 192.88 75.08C193.25 73.49 193.03 72.32 194.18 70.95C192.35 72.59 189.78 71.99 187.84 73.54C186.57 74.54 185.45 76.34 185.14 78ZM291.43 57.69C290.14 57.76 288.88 58.12 287.78 58.79C286.05 59.84 285.21 61.06 282.99 61.23C286.03 61.43 287.74 64.22 290.8 64.59C292.8 64.83 295.37 64.26 297.1 63.09C298.43 62.19 299.58 61.21 301.3 61.09C299.72 61.21 298.25 60.07 297.03 59.24C295.37 58.1 293.43 57.59 291.43 57.69ZM250.64 48.9C200.42 55.59 172.07 48.49 158.23 32.51C167.89 44.41 185.34 52.38 213.41 54.09C210.75 58.54 203.28 69.06 191.65 70.24C191.65 70.24 210.1 68.61 215.12 55.17L214.92 54.18C235.49 55.25 261.64 53.03 294.48 46.59C302.63 44.99 310.44 43.96 317.93 43.36C310.18 55.31 290.92 79.13 260.51 78.93C260.51 78.93 299.37 82.28 324.43 42.94C385.72 39.99 422.53 66.74 422.53 66.74L423.41 56.76C423.41 56.76 400.95 41.5 362.55 36.81L357.37 36.25C339.47 34.59 318.42 35.29 294.78 40.71C284.41 43.09 274.73 45.04 265.65 46.6" fill="#6C5544"/>
</g>
<defs>
<clipPath id="clip0">
<rect width="475.05" height="218.3" fill="white"/>
</clipPath>
</defs>
</svg>
