<?xml version="1.0" encoding="utf-8"?>
<!-- Generator: Adobe Illustrator 25.1.0, SVG Export Plug-In . SVG Version: 6.00 Build 0)  -->
<svg version="1.1" id="Layer_1" xmlns="http://www.w3.org/2000/svg" xmlns:xlink="http://www.w3.org/1999/xlink" x="0px" y="0px"
	 viewBox="0 0 475.05 218.3" style="enable-background:new 0 0 475.05 218.3;" xml:space="preserve">
<style type="text/css">
	.st0{fill:#B8D1DB;}
	.st1{fill:#CCD8E0;}
	.st2{fill:#DDD3C8;}
	.st3{fill:#BBADA1;}
	.st4{fill:#6C5444;}
	.st5{fill:#CB7F64;}
	.st6{fill:#7C7D7A;}
	.st7{fill:#C7A690;}
	.st8{fill:#312013;}
	.st9{opacity:0.5;}
	.st10{opacity:0.5;fill:#C7A690;}
	.st11{fill:#6C5544;}
	.st12{fill:#C2B59B;}
</style>
<rect x="43.58" y="-154.31" class="st0" width="126.26" height="73.67"/>
<rect x="173.37" y="-154.04" class="st1" width="56.91" height="73.4"/>
<g>
	<g>
		<path class="st2" d="M212.66,19.08c0,0,3.57,6.65,6.02,11.43c2.45,4.78,9.09,10.19,11.69,11.53c5.65,2.91,15.02,4.82,22.41-1.13
			c3.34-2.69,17.62-20.07,16.38-20.1L212.66,19.08z"/>
		<path class="st3" d="M232.36,21.1c0,0-0.73-1.63-1.59-2.83c-0.86-1.21-3.19-3.19-3.19-3.19l-0.02,0.03l0.01-0.36
			c0,0-5.05,0.21-7.48,0.7s-7.87,3.9-7.87,3.9l1.82,0.71l13.34,1.41l0.01-0.28L232.36,21.1z"/>
		<path class="st4" d="M264.21,21.42c0,0,10.94-6.4,15.58-9.32c3.81-2.4,8.32-4.64,9.82-5.37c0.21-0.1,0.46,0.08,0.41,0.31
			c-0.24,1.22-0.92,4.13-2.31,5.77c-1.78,2.11-30.04,12.42-30.04,12.42L264.21,21.42z"/>
		<path class="st5" d="M212.51,18.99c0.18,0.16,0.78-0.04,1.04-0.08c0.45-0.07,4.56-1.76,5.42-2.04c6.24-2.02,9.03-0.23,9.22-0.11
			c2.64,1.65,4.2,4.42,4.3,4.4c0.06-0.01-0.89-4.75-5.22-6.68c-0.57-0.25-1.19-0.57-1.9-0.72c-1.61-0.32-3.6-0.61-5.74,0.09
			C217.73,14.46,212.22,18.74,212.51,18.99z"/>
		<path class="st6" d="M207.57,20.01c-0.71-0.07,2.52-1.1,3.33-1.21c1.38-0.19,1.99-0.18,1.99-0.18l1.13,1.44l-0.44,0.81
			C213.59,20.87,209.28,20.17,207.57,20.01z"/>
		<path class="st7" d="M239.79,34.45c7.44-0.3,12.94-3.87,17.62-6.81c5.06-3.18,6.53-4.92,8.23-5.81c0.18-0.09,1.93-1.39,1.72-1.39
			l-41.55-0.78c-5.08-0.14-5.42,0.2-5.41,0.62c0.01,0.75,0.29,1.57,0.5,2.18c0.61,1.78,1.93,3.45,3.17,4.9
			C227.98,31.96,234.94,34.65,239.79,34.45z"/>
		<path class="st8" d="M219.52,19.39L219.52,19.39C219.52,19.39,219.52,19.39,219.52,19.39c0-0.03,0-0.05,0-0.08
			c0-0.03,0-0.05-0.01-0.08c-0.01-0.09-0.04-0.2-0.09-0.3c-0.05-0.1-0.11-0.19-0.18-0.25c-0.19-0.16-0.37-0.21-0.45-0.23
			c-0.08-0.02-0.15-0.03-0.23-0.02c-0.05,0-0.1,0.01-0.15,0.02c-0.05,0.01-0.1,0.03-0.14,0.05c-0.12,0.05-0.23,0.12-0.32,0.21
			c-0.07,0.07-0.14,0.16-0.19,0.26c-0.01,0.02-0.02,0.04-0.03,0.06c0,0.01-0.01,0.01-0.01,0.02c-0.01,0.02-0.01,0.03-0.02,0.05
			c0,0.01-0.01,0.02-0.01,0.02c-0.01,0.02-0.01,0.04-0.02,0.06c0,0.01-0.01,0.03-0.01,0.04c0,0.01-0.01,0.02-0.01,0.03
			c0,0.01-0.01,0.03-0.01,0.04c0,0.01,0,0.01,0,0.02c-0.01,0.04-0.01,0.07-0.02,0.11c0,0,0,0,0,0l0,0
			c-0.03,0.29,0.03,0.59,0.22,0.79c0.14,0.14,0.35,0.22,0.53,0.27c0.23,0.06,0.45-0.03,0.65-0.13
			C219.39,20.19,219.53,19.78,219.52,19.39z"/>
		<g class="st9">
			<path class="st7" d="M257.51,21.73c-0.71,0.86-1.4,1.71-2.15,2.56c-1.08,1.23-2.48,2.21-4.25,3c-1.86,0.83-3.41,1.38-4.89,1.75
				c-2.89,0.71-5.57,1.04-7.99,0.97c-0.14,0-0.28-0.01-0.43-0.02c-2.3-0.11-4.22-0.72-5.63-1.23c-2.18-0.8-3.91-1.9-5.29-3.36
				c-1.52-1.61-2.37-3.46-2.65-5.76c-0.77-0.01-1.39,0-1.89,0.02c-0.09,0.23-0.16,0.46-0.17,0.68c-0.09,1.66,0.73,3.15,1.54,4.4
				c1.06,1.61,2.71,2.96,4.04,3.95c0.64,0.48,1.46,0.9,2.58,1.32c0.31,0.12,0.61,0.23,0.92,0.35c1.48,0.57,3.01,1.16,4.72,1.53
				c1.69,0.36,3.08,0.55,4.37,0.58c1.43,0.04,2.76-0.1,4.05-0.42c3.82-0.96,6.7-2.06,9.08-3.47c0.27-0.16,0.55-0.32,0.82-0.48
				c1.26-0.74,2.57-1.5,3.58-2.37c1.96-1.67,3.41-3.07,4.57-4.39c0.34-0.39,0.43-0.7,0.31-0.99l-4.15-0.08
				C258.27,20.76,257.91,21.25,257.51,21.73z"/>
			<path class="st7" d="M229.39,20.65c0.46,2.05,2.21,3.61,5.37,4.77c1.32,0.48,2.63,0.81,3.98,1.01c0.42,0.06,0.81,0.1,1.21,0.11
				c0.84,0.02,1.65-0.07,2.48-0.27c2.52-0.63,4.34-1.26,5.9-2.04c1.92-0.96,3.32-2.15,4.14-3.54c0.1-0.17,0.23-0.34,0.35-0.51
				l-5.09-0.1c-0.06,0.06-0.12,0.14-0.19,0.23l-0.02,0.02c-1.03,1.23-2.43,2.14-4.26,2.76c-0.7,0.24-1.48,0.36-2.45,0.38
				c-0.33,0.01-0.66,0.01-0.97,0c-2.12-0.06-3.74-0.47-4.95-1.24c-1.32-0.84-2.09-1.58-2.5-2.39c-0.01-0.01-0.02-0.02-0.02-0.04
				l-3.14-0.06C229.28,20.04,229.33,20.35,229.39,20.65z"/>
			<path class="st7" d="M225.52,19.66c0.29,1.56,0.63,2.97,1.64,4.27c1.74,2.25,3.93,3.69,6.88,4.52c1.35,0.38,2.82,0.74,4.46,0.79
				c0.05,0,0.11,0,0.16,0c0.58,0.01,1.2-0.04,1.8-0.08l0.24-0.02c0.18-0.01,0.37-0.04,0.56-0.07c0.24-0.04,0.49-0.07,0.76-0.08
				c2.82-0.13,5.18-1,7.74-2.04c1.74-0.7,3.13-1.58,4.12-2.61c0.63-0.65,1.17-1.3,1.58-1.8c0.57-0.71,1.12-1.43,1.66-2.14l0.12-0.15
				L254,20.19c0.01,0.04,0.01,0.08,0,0.13c-0.05,0.21-0.13,0.43-0.28,0.64c-1.26,1.71-2.72,2.92-4.61,3.83
				c-1.85,0.89-4.07,1.64-6.99,2.35c-0.64,0.16-1.29,0.22-1.98,0.2c-0.29-0.01-0.59-0.03-0.9-0.07c-3.25-0.42-5.98-1.3-8.35-2.71
				c-1.83-1.09-2.43-2.48-2.78-3.7c-0.1-0.36-0.18-0.76-0.24-1.16l-2.07-0.04C225.71,19.66,225.62,19.66,225.52,19.66z"/>
		</g>
		<path class="st10" d="M243.23,19.99c-0.23,0.2-0.45,0.39-0.7,0.57c-0.27,0.2-0.57,0.39-0.89,0.54c-0.48,0.23-0.94,0.34-1.37,0.32
			c-0.33-0.01-0.8-0.1-1.16-0.47c-0.27-0.28-0.49-0.6-0.62-0.92c-0.02-0.05-0.05-0.09-0.08-0.12l-4.61-0.09
			c0.14,0.25,0.34,0.46,0.54,0.65c0.36,0.33,0.77,0.66,1.31,1.04c0.99,0.71,2.36,1.09,4.07,1.14c0.07,0,0.14,0,0.22,0
			c0.05,0,0.1,0,0.15,0c0.08,0,0.16,0,0.24,0c0,0,0.16,0.01,0.22,0.01c0.94,0.03,1.93-0.01,2.82-0.45c1.49-0.74,2.43-1.41,3-2.16
			L243.23,19.99z"/>
		<path class="st8" d="M233.32,50.27c-0.14,0.4-0.26,0.64,0.22,0.73c0.67,0.13,1.26-0.85,1.72-1.52c-0.02,0-0.03,0-0.05,0
			c0.19-0.33,0.3-0.55,0.43-0.76c0.84-1.33,1.7-2.66,2.54-3.99c0.15-0.23,0.44-0.55-0.01-0.72c-0.33-0.13-0.73-0.51-1.09,0.11
			c-0.9,1.57-1.89,3.09-2.8,4.66C234.1,49.11,233.42,49.97,233.32,50.27z"/>
		<path class="st8" d="M238.73,49.75c-0.29,0.34-0.57,0.68-0.77,1.09c-0.01,0.03-0.02,0.08-0.03,0.13c0.01,0.01,0.01,0,0.03,0.01
			c0.19,0.11,0.52,0.15,0.73,0.12c0.69-0.11,1.22-0.89,1.68-1.53c-0.01,0-0.02,0-0.03,0c0.5-0.81,0.97-1.54,1.4-2.29
			c0.49-0.85,0.95-1.73,1.4-2.6c0.07-0.14,0.07-0.33,0.05-0.49c-0.01-0.06-0.22-0.17-0.28-0.14c-0.31,0.17-0.71,0.32-0.88,0.59
			c-0.98,1.52-1.91,3.08-2.87,4.62C239.09,49.34,238.8,49.66,238.73,49.75z"/>
	</g>
	<g>
		<path class="st0" d="M189.67,97.71c-0.5,0.27-1.02,0.47-1.57,0.62c-0.55,0.15-1.11,0.24-1.68,0.27c-1.27,0.07-2.62-0.12-4.05-0.57
			c-1.43-0.45-2.79-1.24-4.08-2.38s-2.4-2.63-3.35-4.5c-0.95-1.87-1.56-4.18-1.83-6.95c-0.3-2.83-0.17-5.47,0.4-7.9
			c0.57-2.43,1.43-4.66,2.58-6.67c1.15-2.02,2.53-3.81,4.15-5.38c1.62-1.57,3.36-2.92,5.23-4.08c1.87-1.15,3.79-2.06,5.77-2.72
			c1.98-0.67,3.91-1.12,5.77-1.35c2.83-0.33,5.77-0.33,8.8,0c3.03,0.33,5.99,1.01,8.88,2.03c2.88,1.02,5.63,2.36,8.25,4.03
			c2.62,1.67,4.94,3.67,6.97,6s3.69,4.98,4.98,7.95c1.28,2.97,2.06,6.27,2.33,9.9c0.23,3.2,0.06,6.15-0.52,8.85
			c-0.58,2.7-1.43,5.13-2.55,7.3c-1.12,2.17-2.42,4.05-3.92,5.65c-1.5,1.6-3.07,2.91-4.7,3.92c-1.63,1.02-3.25,1.72-4.85,2.1
			c-1.6,0.38-3.06,0.44-4.38,0.17c-1.32-0.27-2.42-0.88-3.3-1.83c-0.88-0.95-1.41-2.26-1.58-3.92c-0.1-0.9,0.1-1.67,0.6-2.33
			c0.5-0.65,1.17-1.08,2-1.27c0.83-0.2,1.8-0.15,2.9,0.15c1.1,0.3,2.2,0.93,3.3,1.9c1.03,0.87,2.19,1.7,3.48,2.5
			c1.28,0.8,2.52,1.83,3.7,3.08c1.18,1.25,2.22,2.83,3.1,4.75c0.88,1.92,1.42,4.42,1.62,7.52c0.3,3.7,0.14,7.08-0.48,10.15
			c-0.62,3.06-1.57,5.8-2.85,8.21c-1.28,2.41-2.86,4.49-4.72,6.25c-1.87,1.76-3.88,3.19-6.03,4.29c-2.15,1.1-4.39,1.87-6.72,2.3
			c-2.33,0.43-4.62,0.53-6.85,0.3c-1.9-0.2-3.68-0.77-5.33-1.72s-3.21-2.09-4.67-3.42c-1.47-1.33-2.87-2.75-4.2-4.24
			c-1.33-1.49-2.65-2.88-3.95-4.16c-1.3-1.28-2.6-2.36-3.9-3.26c-1.3-0.9-2.65-1.39-4.05-1.49c-0.5-0.03-0.88,0.22-1.12,0.75
			s-0.36,1.2-0.33,2s0.21,1.67,0.53,2.6c0.32,0.93,0.81,1.78,1.47,2.53c0.67,0.75,1.49,1.33,2.48,1.72c0.98,0.4,2.16,0.48,3.52,0.25
			c0.73-0.1,1.48-0.78,2.23-2.05c0.75-1.27,1.51-2.95,2.27-5.05c0.77-2.1,1.55-4.53,2.35-7.3c0.8-2.77,1.6-5.73,2.4-8.87
			c0.8-3.15,1.62-6.41,2.45-9.78c0.83-3.37,1.67-6.68,2.5-9.95c0.83-3.27,1.67-6.42,2.52-9.45s1.7-5.78,2.55-8.25
			c0.85-2.47,1.7-4.58,2.55-6.35c0.85-1.77,1.71-3.02,2.58-3.75c1.07-0.93,2.22-1.58,3.47-1.92s2.41-0.56,3.48-0.62
			c1.27-0.07,2.53,0,3.8,0.2c0.2,0,0.39,0.08,0.57,0.25c0.18,0.17,0.33,0.37,0.45,0.6c0.12,0.23,0.17,0.49,0.17,0.78
			s-0.1,0.54-0.3,0.77c-2.03,2.43-3.81,5.43-5.33,8.98c-1.52,3.55-2.89,7.39-4.12,11.52c-1.23,4.13-2.38,8.43-3.45,12.9
			c-1.07,4.47-2.15,8.85-3.25,13.15c-1.1,4.3-2.28,8.37-3.55,12.2c-1.27,3.83-2.73,7.19-4.38,10.08s-3.53,5.16-5.65,6.83
			c-2.12,1.67-4.59,2.47-7.42,2.4c-1.13-0.03-2.25-0.36-3.35-0.98c-1.1-0.62-2.13-1.42-3.1-2.42c-0.97-1-1.84-2.13-2.62-3.4
			c-0.78-1.27-1.42-2.57-1.92-3.9s-0.83-2.63-1-3.9c-0.17-1.27-0.12-2.41,0.12-3.42c0.25-1.02,0.73-1.83,1.45-2.45
			c0.72-0.62,1.73-0.94,3.02-0.97c1.67-0.07,3.23,0.32,4.7,1.15c1.47,0.83,2.88,1.87,4.23,3.12s2.69,2.61,4.02,4.09
			c1.33,1.48,2.7,2.85,4.1,4.11c1.4,1.26,2.88,2.32,4.45,3.17c1.57,0.85,3.28,1.27,5.15,1.27c2.7,0,5.28-0.6,7.75-1.79
			c2.47-1.2,4.65-2.81,6.55-4.86c1.9-2.04,3.47-4.43,4.7-7.16c1.23-2.73,1.95-5.64,2.15-8.75c0.2-3.1-0.17-6.3-1.1-9.6
			c-0.93-3.3-2.6-6.53-5-9.7c2.43-1.33,4.42-3.09,5.98-5.28c1.55-2.18,2.67-4.59,3.38-7.22c0.7-2.63,0.98-5.4,0.85-8.3
			c-0.13-2.9-0.65-5.74-1.55-8.53c-0.9-2.78-2.18-5.42-3.85-7.9c-1.67-2.48-3.7-4.62-6.1-6.43c-2.4-1.8-5.14-3.17-8.23-4.13
			c-3.08-0.95-6.51-1.27-10.27-0.97c-2.63,0.23-5.13,0.91-7.5,2.03c-2.37,1.12-4.41,2.67-6.12,4.67c-1.72,2-3,4.46-3.85,7.38
			s-1.09,6.27-0.73,10.08c0.07,0.63,0.26,1.59,0.58,2.88c0.32,1.28,0.83,2.62,1.55,4.02c0.72,1.4,1.67,2.74,2.88,4.03
			S187.84,97.08,189.67,97.71z"/>
		<path class="st0" d="M237.62,112.11c-0.13-0.53-0.02-0.79,0.33-0.77s0.82,0.22,1.4,0.6c0.58,0.38,1.23,0.92,1.93,1.62
			c0.7,0.7,1.36,1.48,1.97,2.33c0.62,0.85,1.12,1.73,1.53,2.65c0.4,0.92,0.6,1.77,0.6,2.57c0,0.27-0.1,0.8-0.3,1.6
			s-0.47,1.77-0.8,2.9c-0.33,1.13-0.7,2.38-1.1,3.73c-0.4,1.35-0.79,2.71-1.18,4.08c-0.38,1.37-0.73,2.67-1.05,3.92
			c-0.32,1.25-0.56,2.34-0.73,3.27c-0.17,0.87-0.28,1.51-0.35,1.93c-0.07,0.42-0.06,0.66,0.03,0.72c0.08,0.07,0.25,0,0.5-0.2
			s0.61-0.48,1.07-0.85c1.17-0.93,2.3-2.08,3.4-3.42c1.1-1.35,2.13-2.78,3.1-4.28s1.86-3.01,2.68-4.53
			c0.82-1.52,1.53-2.91,2.15-4.17c0.62-1.27,1.12-2.35,1.5-3.25c0.38-0.9,0.62-1.47,0.73-1.7c0.47-0.97,0.89-1.56,1.27-1.77
			c0.38-0.22,0.68-0.18,0.9,0.1c0.22,0.28,0.32,0.77,0.3,1.45c-0.02,0.68-0.17,1.46-0.47,2.33c-0.43,1.17-1.03,2.6-1.8,4.3
			c-0.77,1.7-1.67,3.48-2.7,5.35c-1.03,1.87-2.18,3.73-3.45,5.6c-1.27,1.87-2.59,3.54-3.98,5.02c-1.38,1.48-2.82,2.68-4.3,3.6
			c-1.48,0.92-2.96,1.38-4.43,1.38c-0.37,0-0.8-0.08-1.3-0.25s-0.98-0.48-1.45-0.92c-0.47-0.45-0.88-1.08-1.22-1.9
			c-0.35-0.82-0.53-1.86-0.53-3.12c0-0.27,0.18-1,0.55-2.2c0.37-1.2,0.82-2.67,1.38-4.42c0.55-1.75,1.12-3.67,1.7-5.78
			c0.58-2.1,1.08-4.22,1.5-6.35c0.42-2.13,0.71-4.17,0.88-6.12C238.04,115.18,237.95,113.51,237.62,112.11z M241.67,105.71
			c0.1-0.83,0.28-1.62,0.55-2.35c0.27-0.73,0.58-1.38,0.93-1.92c0.35-0.55,0.73-0.98,1.15-1.3c0.42-0.32,0.82-0.47,1.23-0.47
			c0.4,0,0.75,0.16,1.05,0.47c0.3,0.32,0.54,0.75,0.73,1.3c0.18,0.55,0.29,1.19,0.33,1.92c0.03,0.73,0,1.52-0.1,2.35
			c-0.13,0.83-0.34,1.62-0.63,2.35c-0.28,0.73-0.61,1.38-0.98,1.92c-0.37,0.55-0.76,0.99-1.18,1.33c-0.42,0.33-0.82,0.5-1.22,0.5
			c-0.4,0-0.75-0.17-1.05-0.5c-0.3-0.33-0.53-0.77-0.7-1.33c-0.17-0.55-0.27-1.19-0.3-1.92
			C241.44,107.33,241.5,106.54,241.67,105.71z"/>
		<path class="st0" d="M262.82,145.11c0.8,0.1,1.63-0.15,2.5-0.75c0.87-0.6,1.75-1.43,2.65-2.5c0.9-1.07,1.79-2.3,2.67-3.7
			c0.88-1.4,1.72-2.84,2.53-4.33s1.56-2.97,2.28-4.45c0.72-1.48,1.34-2.83,1.88-4.03c0.53-1.2,0.97-2.21,1.32-3.02
			c0.35-0.82,0.56-1.31,0.62-1.48c0.47-0.97,0.89-1.56,1.28-1.77s0.68-0.18,0.9,0.1c0.22,0.28,0.32,0.77,0.32,1.45
			c0,0.68-0.17,1.46-0.5,2.33c-0.4,1.4-0.97,3.02-1.72,4.88c-0.75,1.85-1.62,3.76-2.6,5.72c-0.98,1.97-2.06,3.92-3.23,5.85
			s-2.38,3.67-3.62,5.2c-1.25,1.53-2.53,2.78-3.83,3.75c-1.3,0.97-2.55,1.48-3.75,1.55c-0.63,0.03-1.38-0.07-2.25-0.3
			c-0.87-0.23-1.71-0.72-2.53-1.45c-0.82-0.73-1.52-1.77-2.12-3.1c-0.6-1.33-0.97-3.08-1.1-5.25c-0.03-0.63,0.03-1.49,0.2-2.58
			c0.17-1.08,0.4-2.25,0.7-3.5c0.3-1.25,0.63-2.51,1-3.77c0.37-1.27,0.71-2.41,1.02-3.42c0.32-1.02,0.59-1.85,0.83-2.5
			c0.23-0.65,0.37-0.98,0.4-0.98c0.03,0-0.23-0.01-0.78-0.02s-1.2-0.2-1.95-0.55c-0.75-0.35-1.47-0.95-2.17-1.8
			c-0.7-0.85-1.17-2.11-1.4-3.77c-0.1-0.77-0.07-1.68,0.08-2.75c0.15-1.07,0.38-2.18,0.7-3.35c0.32-1.17,0.72-2.33,1.2-3.47
			c0.48-1.15,1.02-2.19,1.6-3.12c0.58-0.93,1.22-1.72,1.9-2.35c0.68-0.63,1.38-1,2.08-1.1c0.87-0.13,1.61-0.1,2.22,0.1
			c0.62,0.2,1.11,0.49,1.47,0.88c0.37,0.38,0.62,0.84,0.75,1.38c0.13,0.53,0.15,1.08,0.05,1.65c-0.1,0.57-0.38,1.4-0.85,2.5
			s-0.97,2.2-1.5,3.3c-0.6,1.3-1.28,2.67-2.05,4.1c1.37-0.5,2.63-0.97,3.8-1.4c1-0.37,2-0.72,3-1.08c1-0.35,1.77-0.58,2.3-0.67
			c0.67-0.13,1.19,0.04,1.58,0.53c0.38,0.48,0.64,1.07,0.78,1.77c0.13,0.7,0.15,1.42,0.05,2.17s-0.3,1.33-0.6,1.73
			c-0.77,1.07-1.61,2.44-2.53,4.12c-0.92,1.68-1.79,3.47-2.62,5.38c-0.83,1.9-1.58,3.83-2.25,5.8c-0.67,1.97-1.17,3.78-1.53,5.45
			c-0.35,1.67-0.47,3.1-0.38,4.3C261.72,143.96,262.12,144.74,262.82,145.11z"/>
		<path class="st0" d="M274.62,136.61c-0.13-1.13-0.12-2.52,0.05-4.15c0.17-1.63,0.48-3.33,0.95-5.1c0.47-1.77,1.11-3.54,1.92-5.32
			c0.82-1.78,1.83-3.39,3.05-4.83c1.22-1.43,2.63-2.64,4.25-3.62s3.46-1.56,5.53-1.73c0.7-0.07,1.37,0.08,2,0.43
			c0.63,0.35,1.17,0.92,1.62,1.72s0.78,1.82,0.97,3.05c0.2,1.23,0.2,2.7,0,4.4c0,0.17-0.09,0.49-0.27,0.97
			c-0.18,0.48-0.37,0.93-0.55,1.35c-0.18,0.42-0.35,0.73-0.5,0.95c-0.15,0.22-0.19,0.14-0.12-0.22c0.33-2.13,0.29-3.87-0.12-5.2
			c-0.42-1.33-0.98-2.03-1.68-2.1c-0.8-0.1-1.67,0.39-2.62,1.47c-0.95,1.08-1.86,2.55-2.72,4.4c-0.87,1.85-1.62,3.96-2.25,6.33
			c-0.63,2.37-1.02,4.77-1.15,7.2c-0.03,0.27-0.02,0.73,0.05,1.4c0.07,0.67,0.18,1.33,0.35,2c0.17,0.67,0.39,1.26,0.67,1.78
			s0.64,0.77,1.08,0.77c0.43,0,0.91-0.32,1.42-0.95c0.52-0.63,1.01-1.33,1.48-2.1c0.53-0.9,1.05-1.93,1.55-3.1l2.1,2.8
			c-0.53,1.57-1.22,2.86-2.08,3.88c-0.85,1.02-1.77,1.83-2.75,2.45s-1.97,1.04-2.97,1.27c-1,0.23-1.92,0.33-2.75,0.3
			c-1.17-0.1-2.14-0.55-2.92-1.35c-0.78-0.8-1.42-1.75-1.92-2.85c-0.5-1.1-0.88-2.23-1.15-3.4
			C274.85,138.34,274.69,137.38,274.62,136.61z M294.87,114.86c0,0.03,0.09-0.42,0.28-1.35c0.18-0.93,0.42-2.18,0.7-3.75
			c0.28-1.57,0.58-3.35,0.9-5.35c0.32-2,0.62-4.04,0.9-6.12c0.28-2.08,0.51-4.12,0.67-6.12c0.17-2,0.25-3.78,0.25-5.33
			s-0.12-2.78-0.38-3.7c-0.25-0.92-0.67-1.34-1.28-1.28c-0.8,0.1-1.48,0.55-2.05,1.35c-0.57,0.8-1.02,1.83-1.35,3.08
			c-0.33,1.25-0.54,2.67-0.62,4.27c-0.08,1.6-0.07,3.24,0.05,4.92c0.12,1.68,0.34,3.35,0.67,5c0.33,1.65,0.77,3.15,1.3,4.5
			c0.53,1.35,1.15,2.48,1.85,3.4c0.7,0.92,1.5,1.51,2.4,1.78c0.13,0.07,0.23,0.28,0.28,0.65c0.05,0.37,0.06,0.76,0.02,1.17
			c-0.03,0.42-0.11,0.79-0.22,1.12c-0.12,0.33-0.29,0.47-0.53,0.4c-1.43-0.4-2.7-1.23-3.8-2.5c-1.1-1.27-2.02-2.81-2.77-4.62
			c-0.75-1.82-1.34-3.82-1.78-6c-0.43-2.18-0.68-4.38-0.75-6.58c-0.07-2.2,0.04-4.33,0.33-6.38c0.28-2.05,0.74-3.84,1.38-5.38
			c0.63-1.53,1.45-2.74,2.45-3.62c1-0.88,2.18-1.26,3.55-1.12c2.13,0.2,3.79,1.09,4.97,2.67c1.18,1.58,2.01,3.63,2.48,6.15
			c0.47,2.52,0.62,5.38,0.45,8.6c-0.17,3.22-0.51,6.58-1.02,10.08c-0.52,3.5-1.15,7.03-1.9,10.58s-1.51,6.9-2.27,10.05
			c-0.77,3.15-1.48,6-2.12,8.55c-0.65,2.55-1.11,4.58-1.38,6.08c-0.37,1.73-0.42,2.71-0.15,2.92c0.27,0.22,0.85-0.04,1.75-0.77
			c1.17-0.93,2.3-2.08,3.4-3.42c1.1-1.35,2.13-2.78,3.1-4.28s1.86-3.01,2.67-4.53c0.82-1.52,1.53-2.91,2.15-4.17
			c0.62-1.27,1.12-2.35,1.5-3.25c0.38-0.9,0.62-1.47,0.72-1.7c0.47-0.97,0.89-1.56,1.28-1.77c0.38-0.22,0.68-0.18,0.9,0.1
			c0.22,0.28,0.32,0.77,0.3,1.45c-0.02,0.68-0.18,1.46-0.48,2.33c-0.4,1.17-0.99,2.6-1.77,4.3c-0.78,1.7-1.69,3.48-2.73,5.35
			c-1.03,1.87-2.18,3.73-3.45,5.6c-1.27,1.87-2.59,3.54-3.97,5.02c-1.38,1.48-2.82,2.68-4.3,3.6c-1.48,0.92-2.96,1.38-4.42,1.38
			c-0.37,0-0.8-0.08-1.3-0.25s-0.99-0.48-1.47-0.92c-0.48-0.45-0.9-1.08-1.25-1.9c-0.35-0.82-0.53-1.86-0.53-3.12
			c0-0.23,0.13-0.91,0.4-2.03c0.27-1.12,0.6-2.5,1-4.15c0.4-1.65,0.84-3.46,1.33-5.42c0.48-1.97,0.96-3.92,1.42-5.85
			c0.47-1.93,0.9-3.76,1.3-5.47C294.32,117.37,294.64,115.96,294.87,114.86z"/>
	</g>
	<path class="st4" d="M302.46,160.9c0.3-0.93,1-1.43,1.67-2.04c0.88-0.79,1.54-2.13,1.68-3.27c0.21-1.74-1.09-3.05-0.79-4.76
		c-0.4,1.2-1.18,1.5-1.99,2.31c-0.52,0.52-0.89,1.17-1.1,1.87c-0.33,1.09-0.31,2.23,0.09,3.29
		C302.31,159.08,302.73,160.05,302.46,160.9z M313.27,153.43c0.33-1.69,1.44-2.71,2.5-3.93c1.38-1.58,2.25-4.06,2.26-6.07
		c0-3.08-2.56-5.11-2.39-8.16c-0.44,2.18-1.75,2.87-3,4.46c-0.8,1.02-1.31,2.22-1.54,3.49c-0.35,1.97-0.08,3.97,0.85,5.75
		C312.64,150.27,313.58,151.88,313.27,153.43z M221.77,201.46c-1.6-1.2-3.51-1.85-5.51-1.83c-1.48,0.02-3.33,0.14-4.58-0.83
		c1.36,1.06,1.77,2.51,2.38,4c0.79,1.94,2.61,3.84,4.4,4.75c2.75,1.39,5.71,0.02,8.36,1.54c-1.75-1.38-1.77-2.86-2.63-4.69
		C223.65,203.24,222.8,202.23,221.77,201.46z M284.32,180.63c-2,0.16-3.86,0.93-5.34,2.28c-1.09,0.99-2.4,2.31-3.98,2.41
		c1.72-0.1,2.99,0.71,4.43,1.43c1.88,0.93,4.5,1.15,6.44,0.65c2.98-0.78,4.3-3.77,7.29-4.37c-2.22,0.13-3.22-0.97-5.07-1.78
		C286.9,180.71,285.61,180.52,284.32,180.63z M307.6,170.18c-0.83-1.47-2.47-2.8-4-3.35c-2.34-0.84-4.57,0.56-6.84-0.39
		c1.53,0.92,1.7,2.1,2.57,3.48c0.56,0.88,1.33,1.6,2.24,2.11c1.4,0.8,2.99,1.13,4.59,0.9c1.18-0.17,2.65-0.45,3.74,0.2
		C308.71,172.43,308.23,171.31,307.6,170.18z M322.4,154.95c-2.2-1.16-4.6-0.09-6.71-1.36c1.39,1.13,1.39,2.32,2.05,3.81
		c0.43,0.95,1.1,1.77,1.91,2.41c1.27,0.99,2.8,1.54,4.42,1.55c1.19,0,2.69-0.07,3.68,0.73c-1.08-0.87-1.39-2.04-1.86-3.25
		C325.28,157.26,323.84,155.71,322.4,154.95z M330.24,145.28c-1.96-0.74-4.59-0.69-6.48,0.01c-2.88,1.08-3.89,4.18-6.81,5.09
		c2.2-0.35,3.3,0.64,5.22,1.25c1.23,0.4,2.54,0.46,3.81,0.22c1.97-0.36,3.75-1.32,5.08-2.81c0.99-1.1,2.16-2.54,3.72-2.8
		C333.09,146.53,331.75,145.85,330.24,145.28z M219.46,185.27c-1.92,1.11-3.31,0.59-5.33,0.7c-1.29,0.07-2.53,0.49-3.64,1.16
		c-1.71,1.04-3.02,2.57-3.74,4.44c-0.53,1.38-1.1,3.14-2.47,3.94c1.49-0.87,2.99-0.72,4.6-0.73c2.09-0.01,4.53-1,6.04-2.33
		C217.24,190.42,217.07,187.16,219.46,185.27z M287.11,192.38c-1.94-1.55-4.51-0.95-6.34-2.59c1.15,1.37,0.93,2.54,1.3,4.13
		c0.24,1.02,0.74,1.94,1.43,2.72c1.07,1.21,2.47,2.04,4.05,2.34c1.17,0.23,2.65,0.43,3.48,1.4c-0.9-1.05-0.99-2.27-1.22-3.54
		C289.5,195.19,288.38,193.4,287.11,192.38z M177.93,178.09c-1.22,0.84-2.69,1.97-4.27,1.85c1.72,0.12,2.87,1.1,4.2,2
		c1.73,1.17,4.3,1.75,6.3,1.5c3.06-0.37,4.76-3.16,7.81-3.36c-2.22-0.17-3.06-1.39-4.79-2.44c-1.11-0.67-2.37-1.03-3.65-1.1
		C181.52,176.44,179.58,176.96,177.93,178.09z M209.3,165.45c-9.08-1.56-18.76-3.51-29.13-5.89c-23.64-5.43-44.7-6.13-62.59-4.46
		l-5.18,0.56c-38.41,4.69-60.86,19.95-60.86,19.95l0.88,9.98c0,0,36.82-26.75,98.1-23.8c25.06,39.34,63.92,35.99,63.92,35.99
		c-30.4,0.2-49.67-23.61-57.42-35.57c7.49,0.61,15.3,1.64,23.45,3.23c32.84,6.44,58.99,8.66,79.56,7.59l-0.2,0.99
		c5.02,13.44,23.47,15.07,23.47,15.07c-11.64-1.18-19.1-11.7-21.76-16.15c28.07-1.71,45.52-9.68,55.18-21.58
		c-13.84,15.98-42.19,23.08-92.41,16.39"/>
	<g>
		<path class="st0" d="M18.03,93.26c-2.04-0.13-3.69-0.5-4.95-1.1c-1.27-0.6-2.25-1.35-2.95-2.25c-0.7-0.9-1.17-1.9-1.4-3
			c-0.23-1.1-0.35-2.25-0.35-3.45c0.03-2.73,0.39-5.33,1.08-7.8c0.68-2.47,1.69-4.67,3.02-6.6c1.33-1.93,2.96-3.56,4.88-4.88
			c1.92-1.32,4.12-2.19,6.62-2.63c1.53-0.27,3.24-0.35,5.12-0.25c1.88,0.1,3.79,0.45,5.73,1.05c1.93,0.6,3.81,1.48,5.62,2.65
			c1.82,1.17,3.43,2.7,4.85,4.6c1.42,1.9,2.55,4.2,3.4,6.9s1.27,5.88,1.27,9.55c0,1.77-0.24,4.07-0.73,6.9
			c-0.48,2.83-1.1,5.97-1.85,9.42s-1.59,7.08-2.52,10.88c-0.93,3.8-1.86,7.54-2.77,11.22c-0.92,3.68-1.78,7.18-2.6,10.48
			c-0.82,3.3-1.48,6.17-2,8.62c-0.52,2.45-0.84,4.35-0.98,5.7c-0.13,1.35,0.02,1.91,0.45,1.67c0.7-0.37,1.65-1.48,2.85-3.33
			c1.2-1.85,2.53-4.17,4-6.95c1.47-2.78,3.02-5.9,4.65-9.35c1.63-3.45,3.24-6.98,4.81-10.6c1.57-3.62,3.06-7.18,4.46-10.7
			s2.61-6.72,3.61-9.6c1-2.88,1.75-5.32,2.23-7.3c0.48-1.98,0.61-3.26,0.38-3.83c0.41,1.1,0.7,2.08,0.86,2.92
			c0.16,0.85,0.24,1.68,0.24,2.48s-0.03,1.62-0.1,2.47c-0.07,0.85-0.12,1.83-0.15,2.92c-1.4,4.07-2.88,8.33-4.43,12.8
			c-1.55,4.47-3.14,8.87-4.77,13.2c-1.63,4.33-3.3,8.46-5,12.37c-1.7,3.92-3.41,7.36-5.12,10.33c-1.72,2.97-3.42,5.31-5.12,7.03
			c-1.7,1.72-3.38,2.54-5.05,2.47c-1.7-0.07-3.08-0.58-4.13-1.55c-1.05-0.97-1.88-2.08-2.5-3.35c-0.62-1.27-1.06-2.55-1.33-3.85
			c-0.27-1.3-0.43-2.33-0.5-3.1c-0.17-1.53-0.09-3.47,0.23-5.8c0.32-2.33,0.78-4.9,1.4-7.7c0.62-2.8,1.35-5.76,2.2-8.87
			c0.85-3.12,1.74-6.24,2.67-9.38c0.93-3.13,1.85-6.19,2.75-9.17s1.72-5.74,2.45-8.28c0.73-2.53,1.34-4.76,1.82-6.67
			c0.48-1.92,0.76-3.39,0.83-4.42c0.2-3.27,0.05-6.02-0.45-8.25s-1.23-4.06-2.2-5.48c-0.97-1.42-2.08-2.49-3.35-3.22
			c-1.27-0.73-2.55-1.23-3.85-1.48c-1.3-0.25-2.56-0.31-3.77-0.17c-1.22,0.13-2.24,0.33-3.08,0.6c-1.77,0.57-3.27,1.49-4.52,2.77
			c-1.25,1.28-2.26,2.73-3.02,4.33c-0.77,1.6-1.31,3.27-1.62,5c-0.32,1.73-0.44,3.35-0.38,4.85c0.03,0.87,0.15,1.72,0.35,2.55
			c0.2,0.83,0.44,1.62,0.73,2.35c0.28,0.73,0.59,1.38,0.93,1.95C17.31,92.53,17.66,92.96,18.03,93.26z M137.22,45.51
			c-4.3-0.33-8.32,0.39-12.05,2.17c-3.73,1.78-7.23,4.33-10.48,7.62s-6.28,7.21-9.1,11.73c-2.82,4.52-5.47,9.35-7.95,14.5
			c-2.48,5.15-4.8,10.46-6.95,15.92s-4.19,10.8-6.12,16c-1.93,5.2-3.77,10.12-5.5,14.75c-1.73,4.63-3.43,8.67-5.08,12.12
			s-3.28,6.17-4.87,8.17s-3.19,2.97-4.8,2.9c-1.13-0.03-2.12-0.28-2.98-0.75c-0.85-0.47-1.58-1.06-2.17-1.78
			c-0.6-0.72-1.1-1.51-1.5-2.38c-0.4-0.87-0.73-1.73-1-2.6c-0.27-0.87-0.46-1.68-0.58-2.45c-0.12-0.77-0.21-1.4-0.27-1.9
			c-0.23-2.07-0.18-4.33,0.15-6.77c0.33-2.45,0.81-4.97,1.42-7.55c0.62-2.58,1.33-5.17,2.12-7.75c0.8-2.58,1.56-5.05,2.28-7.4
			c0.72-2.35,1.33-4.52,1.85-6.5c0.52-1.98,0.83-3.67,0.93-5.08c0.13-2.17,0.11-4.09-0.08-5.78c-0.18-1.68-0.51-3.19-0.98-4.52
			c1.91-0.83,3.5-1.13,4.77-0.9c1.27,0.23,2.29,0.84,3.04,1.83c0.75,0.98,1.28,2.29,1.58,3.92c0.3,1.63,0.44,3.43,0.4,5.4
			c0,1.77-0.16,3.79-0.48,6.08c-0.32,2.28-0.72,4.69-1.21,7.22c-0.49,2.53-1.02,5.12-1.61,7.78c-0.59,2.65-1.17,5.21-1.76,7.67
			c-0.59,2.47-1.11,4.77-1.58,6.92c-0.47,2.15-0.84,3.99-1.11,5.53c-0.27,1.53-0.39,2.7-0.35,3.5c0.03,0.8,0.27,1.08,0.71,0.85
			c0.84-0.43,1.77-1.55,2.79-3.35c1.02-1.8,2.15-4.12,3.37-6.98c1.22-2.85,2.54-6.13,3.96-9.85c1.42-3.72,2.93-7.69,4.55-11.92
			c1.62-4.23,3.34-8.65,5.17-13.25c1.83-4.6,3.78-9.19,5.83-13.78c2.05-4.58,4.21-9.09,6.48-13.53c2.27-4.43,4.64-8.61,7.12-12.52
			c2.48-3.92,5.07-7.49,7.77-10.73c2.7-3.23,5.52-5.95,8.45-8.15c0.43-0.33,1.06-0.7,1.88-1.1c0.82-0.4,1.72-0.71,2.7-0.92
			c0.98-0.22,2.02-0.3,3.1-0.25c1.08,0.05,2.13,0.33,3.15,0.85c1.02,0.52,1.96,1.33,2.83,2.45
			C135.94,42.1,136.65,43.61,137.22,45.51z"/>
		<path class="st0" d="M93.87,112.11c-0.13-0.53-0.02-0.79,0.33-0.77s0.82,0.22,1.4,0.6c0.58,0.38,1.23,0.92,1.93,1.62
			c0.7,0.7,1.36,1.48,1.97,2.33c0.62,0.85,1.12,1.73,1.53,2.65c0.4,0.92,0.6,1.77,0.6,2.57c0,0.27-0.1,0.8-0.3,1.6
			s-0.47,1.77-0.8,2.9c-0.33,1.13-0.7,2.38-1.1,3.73c-0.4,1.35-0.79,2.71-1.18,4.08c-0.38,1.37-0.73,2.67-1.05,3.92
			c-0.32,1.25-0.56,2.34-0.73,3.27c-0.17,0.87-0.28,1.51-0.35,1.93c-0.07,0.42-0.06,0.66,0.03,0.72c0.08,0.07,0.25,0,0.5-0.2
			s0.61-0.48,1.07-0.85c1.17-0.93,2.3-2.08,3.4-3.42c1.1-1.35,2.13-2.78,3.1-4.28c0.97-1.5,1.86-3.01,2.68-4.53
			c0.82-1.52,1.53-2.91,2.15-4.17c0.62-1.27,1.12-2.35,1.5-3.25c0.38-0.9,0.62-1.47,0.73-1.7c0.47-0.97,0.89-1.56,1.27-1.77
			c0.38-0.22,0.68-0.18,0.9,0.1c0.22,0.28,0.32,0.77,0.3,1.45c-0.02,0.68-0.17,1.46-0.47,2.33c-0.43,1.17-1.03,2.6-1.8,4.3
			c-0.77,1.7-1.67,3.48-2.7,5.35c-1.03,1.87-2.18,3.73-3.45,5.6c-1.27,1.87-2.59,3.54-3.98,5.02c-1.38,1.48-2.82,2.68-4.3,3.6
			c-1.48,0.92-2.96,1.38-4.43,1.38c-0.37,0-0.8-0.08-1.3-0.25s-0.98-0.48-1.45-0.92c-0.47-0.45-0.88-1.08-1.22-1.9
			c-0.35-0.82-0.53-1.86-0.53-3.12c0-0.27,0.18-1,0.55-2.2c0.37-1.2,0.82-2.67,1.38-4.42c0.55-1.75,1.12-3.67,1.7-5.78
			c0.58-2.1,1.08-4.22,1.5-6.35c0.42-2.13,0.71-4.17,0.88-6.12C94.29,115.18,94.2,113.51,93.87,112.11z M97.92,105.71
			c0.1-0.83,0.28-1.62,0.55-2.35c0.27-0.73,0.58-1.38,0.93-1.92c0.35-0.55,0.73-0.98,1.15-1.3c0.42-0.32,0.82-0.47,1.23-0.47
			c0.4,0,0.75,0.16,1.05,0.47c0.3,0.32,0.54,0.75,0.73,1.3c0.18,0.55,0.29,1.19,0.32,1.92c0.03,0.73,0,1.52-0.1,2.35
			c-0.13,0.83-0.34,1.62-0.62,2.35c-0.28,0.73-0.61,1.38-0.98,1.92c-0.37,0.55-0.76,0.99-1.18,1.33c-0.42,0.33-0.82,0.5-1.22,0.5
			c-0.4,0-0.75-0.17-1.05-0.5c-0.3-0.33-0.53-0.77-0.7-1.33c-0.17-0.55-0.27-1.19-0.3-1.92C97.69,107.33,97.75,106.54,97.92,105.71z
			"/>
		<path class="st0" d="M130.82,80.61c1.43-0.1,2.6,0.18,3.5,0.85s1.58,1.5,2.05,2.5s0.76,2.06,0.88,3.17
			c0.12,1.12,0.12,2.08,0.03,2.88c-0.47,4.1-1.28,7.78-2.45,11.03c-1.17,3.25-2.51,6.09-4.02,8.52c-1.52,2.43-3.12,4.48-4.8,6.12
			c-1.68,1.65-3.27,2.93-4.75,3.85c-1.48,0.92-2.77,1.48-3.85,1.7c-1.08,0.22-1.78,0.11-2.08-0.32c-0.03-0.07-0.17-0.23-0.42-0.48
			s-0.52-0.53-0.8-0.85c-0.28-0.32-0.52-0.64-0.73-0.98c-0.2-0.33-0.26-0.6-0.17-0.8c0.08-0.2,0.35-0.32,0.8-0.35
			c0.45-0.03,1.19,0.1,2.23,0.4c0.9,0.27,1.93,0.11,3.1-0.47c1.17-0.58,2.38-1.48,3.62-2.7c1.25-1.22,2.5-2.73,3.75-4.55
			c1.25-1.82,2.42-3.84,3.52-6.08c1.1-2.23,2.08-4.64,2.95-7.22c0.87-2.58,1.52-5.26,1.95-8.03c0.17-1.03,0.1-1.62-0.2-1.75
			c-0.3-0.13-0.68-0.03-1.15,0.3c-0.47,0.33-0.96,0.79-1.48,1.38c-0.52,0.58-0.91,1.08-1.18,1.48c-0.7,1.1-1.55,2.51-2.55,4.22
			c-1,1.72-2.05,3.71-3.15,5.98s-2.18,4.78-3.25,7.55c-1.07,2.77-2.02,5.74-2.85,8.92c-0.83,3.18-1.52,6.56-2.05,10.12
			c-0.53,3.57-0.78,7.27-0.75,11.1c0,0.7,0.03,1.41,0.1,2.12c0.07,0.72,0.18,1.35,0.33,1.9s0.35,1,0.6,1.35
			c0.25,0.35,0.54,0.53,0.88,0.53c0.57,0,1.24-0.35,2.02-1.05c0.78-0.7,1.61-1.62,2.48-2.75c0.87-1.13,1.76-2.43,2.67-3.9
			c0.92-1.47,1.81-2.97,2.68-4.5c0.87-1.53,1.69-3.03,2.47-4.5c0.78-1.47,1.48-2.79,2.08-3.97c0.6-1.18,1.08-2.16,1.45-2.92
			c0.37-0.77,0.58-1.18,0.65-1.25c0.23-0.37,0.48-0.6,0.73-0.7c0.25-0.1,0.47-0.08,0.67,0.08c0.2,0.15,0.35,0.42,0.45,0.82
			c0.1,0.4,0.1,0.92,0,1.55c-0.03,0.13-0.23,0.64-0.58,1.52c-0.35,0.88-0.84,1.98-1.48,3.3c-0.63,1.32-1.38,2.81-2.23,4.48
			c-0.85,1.67-1.77,3.35-2.77,5.05s-2.06,3.36-3.17,4.97c-1.12,1.62-2.25,3.05-3.4,4.3c-1.15,1.25-2.31,2.26-3.48,3.02
			c-1.17,0.77-2.3,1.15-3.4,1.15c-0.6,0-1.36-0.15-2.28-0.45c-0.92-0.3-1.8-0.93-2.65-1.9c-0.85-0.97-1.57-2.35-2.15-4.15
			c-0.58-1.8-0.88-4.2-0.88-7.2c0-2.1,0.15-4.48,0.45-7.15c0.3-2.67,0.72-5.45,1.27-8.35c0.55-2.9,1.22-5.87,2-8.9
			c0.78-3.03,1.67-5.97,2.67-8.8c1-2.83,2.09-5.52,3.27-8.05c1.18-2.53,2.46-4.75,3.83-6.65c1.37-1.9,2.8-3.43,4.3-4.6
			C127.62,81.34,129.19,80.71,130.82,80.61z"/>
		<path class="st0" d="M129.92,136.61c-0.13-1.13-0.12-2.52,0.05-4.15c0.17-1.63,0.48-3.33,0.95-5.1c0.47-1.77,1.11-3.54,1.92-5.32
			c0.82-1.78,1.83-3.39,3.05-4.83c1.22-1.43,2.63-2.64,4.25-3.62c1.62-0.98,3.46-1.56,5.52-1.73c0.7-0.07,1.37,0.08,2,0.43
			c0.63,0.35,1.17,0.92,1.62,1.72s0.77,1.82,0.98,3.05c0.2,1.23,0.2,2.7,0,4.4c0,0.17-0.09,0.49-0.27,0.97
			c-0.18,0.48-0.37,0.93-0.55,1.35c-0.18,0.42-0.35,0.73-0.5,0.95c-0.15,0.22-0.19,0.14-0.12-0.22c0.33-2.13,0.29-3.87-0.12-5.2
			c-0.42-1.33-0.98-2.03-1.67-2.1c-0.8-0.1-1.68,0.39-2.62,1.47c-0.95,1.08-1.86,2.55-2.73,4.4c-0.87,1.85-1.62,3.96-2.25,6.33
			c-0.63,2.37-1.02,4.77-1.15,7.2c-0.03,0.27-0.02,0.73,0.05,1.4c0.07,0.67,0.18,1.33,0.35,2c0.17,0.67,0.39,1.26,0.67,1.78
			s0.64,0.77,1.08,0.77c0.43,0,0.91-0.32,1.42-0.95c0.52-0.63,1.01-1.33,1.48-2.1c0.53-0.9,1.05-1.93,1.55-3.1l2.1,2.8
			c-0.53,1.57-1.22,2.86-2.07,3.88s-1.77,1.83-2.75,2.45c-0.98,0.62-1.98,1.04-2.98,1.27c-1,0.23-1.92,0.33-2.75,0.3
			c-1.17-0.1-2.14-0.55-2.92-1.35c-0.78-0.8-1.43-1.75-1.93-2.85c-0.5-1.1-0.88-2.23-1.15-3.4
			C130.15,138.34,129.99,137.38,129.92,136.61z M150.17,114.86c0,0.03,0.09-0.42,0.27-1.35c0.18-0.93,0.42-2.18,0.7-3.75
			c0.28-1.57,0.58-3.35,0.9-5.35c0.32-2,0.62-4.04,0.9-6.12c0.28-2.08,0.51-4.12,0.68-6.12c0.17-2,0.25-3.78,0.25-5.33
			s-0.12-2.78-0.38-3.7c-0.25-0.92-0.68-1.34-1.28-1.28c-0.8,0.1-1.48,0.55-2.05,1.35c-0.57,0.8-1.02,1.83-1.35,3.08
			c-0.33,1.25-0.54,2.67-0.62,4.27c-0.08,1.6-0.07,3.24,0.05,4.92c0.12,1.68,0.34,3.35,0.67,5c0.33,1.65,0.77,3.15,1.3,4.5
			c0.53,1.35,1.15,2.48,1.85,3.4c0.7,0.92,1.5,1.51,2.4,1.78c0.13,0.07,0.23,0.28,0.28,0.65c0.05,0.37,0.06,0.76,0.02,1.17
			c-0.03,0.42-0.11,0.79-0.23,1.12c-0.12,0.33-0.29,0.47-0.52,0.4c-1.43-0.4-2.7-1.23-3.8-2.5c-1.1-1.27-2.02-2.81-2.77-4.62
			c-0.75-1.82-1.34-3.82-1.77-6c-0.43-2.18-0.68-4.38-0.75-6.58c-0.07-2.2,0.04-4.33,0.33-6.38c0.28-2.05,0.74-3.84,1.38-5.38
			c0.63-1.53,1.45-2.74,2.45-3.62c1-0.88,2.18-1.26,3.55-1.12c2.13,0.2,3.79,1.09,4.97,2.67c1.18,1.58,2.01,3.63,2.48,6.15
			c0.47,2.52,0.62,5.38,0.45,8.6c-0.17,3.22-0.51,6.58-1.02,10.08c-0.52,3.5-1.15,7.03-1.9,10.58s-1.51,6.9-2.27,10.05
			c-0.77,3.15-1.48,6-2.12,8.55c-0.65,2.55-1.11,4.58-1.38,6.08c-0.37,1.73-0.42,2.71-0.15,2.92c0.27,0.22,0.85-0.04,1.75-0.77
			c1.17-0.93,2.3-2.08,3.4-3.42c1.1-1.35,2.13-2.78,3.1-4.28c0.97-1.5,1.86-3.01,2.67-4.53c0.82-1.52,1.53-2.91,2.15-4.17
			c0.62-1.27,1.12-2.35,1.5-3.25c0.38-0.9,0.62-1.47,0.72-1.7c0.47-0.97,0.89-1.56,1.28-1.77c0.38-0.22,0.68-0.18,0.9,0.1
			c0.22,0.28,0.32,0.77,0.3,1.45c-0.02,0.68-0.17,1.46-0.48,2.33c-0.4,1.17-0.99,2.6-1.77,4.3c-0.78,1.7-1.69,3.48-2.73,5.35
			c-1.03,1.87-2.18,3.73-3.45,5.6c-1.27,1.87-2.59,3.54-3.98,5.02c-1.38,1.48-2.82,2.68-4.3,3.6c-1.48,0.92-2.96,1.38-4.43,1.38
			c-0.37,0-0.8-0.08-1.3-0.25s-0.99-0.48-1.48-0.92c-0.48-0.45-0.9-1.08-1.25-1.9c-0.35-0.82-0.52-1.86-0.52-3.12
			c0-0.23,0.13-0.91,0.4-2.03c0.27-1.12,0.6-2.5,1-4.15c0.4-1.65,0.84-3.46,1.33-5.42c0.48-1.97,0.96-3.92,1.42-5.85
			c0.47-1.93,0.9-3.76,1.3-5.47C149.62,117.37,149.94,115.96,150.17,114.86z"/>
	</g>
	<g>
		<path class="st0" d="M319.22,100.66c-3.07-1.03-5.32-2.45-6.75-4.25c-1.43-1.8-2.23-3.75-2.38-5.85c-0.15-2.1,0.22-4.24,1.12-6.42
			c0.9-2.18,2.13-4.17,3.7-5.97c1.57-1.8,3.36-3.28,5.38-4.45s4.06-1.82,6.12-1.95c1.87-0.1,3.7,0.17,5.5,0.8
			c1.8,0.63,3.58,1.53,5.33,2.67c1.75,1.15,3.49,2.48,5.23,3.98c1.73,1.5,3.48,3.04,5.25,4.62c1.77,1.58,3.56,3.15,5.38,4.7
			c1.82,1.55,3.68,2.95,5.6,4.2c1.92,1.25,3.9,2.28,5.95,3.08s4.19,1.25,6.42,1.35c1.5,0.07,2.86-0.23,4.08-0.9
			c1.22-0.67,2.28-1.58,3.2-2.72c0.92-1.15,1.67-2.48,2.25-3.98c0.58-1.5,0.99-3.06,1.22-4.67c0.23-1.62,0.28-3.22,0.15-4.8
			c-0.13-1.58-0.48-3.03-1.05-4.33s-1.34-2.39-2.32-3.28c-0.98-0.88-2.19-1.42-3.62-1.62c-1.03-0.13-2.28,0.11-3.75,0.73
			c-1.47,0.62-3.05,1.59-4.75,2.92c-1.7,1.33-3.46,3.03-5.28,5.08c-1.82,2.05-3.58,4.43-5.3,7.15c-1.72,2.72-3.33,5.75-4.83,9.1
			c-1.5,3.35-2.78,7.02-3.85,11c-1.07,3.98-1.86,8.25-2.38,12.8c-0.52,4.55-0.64,9.39-0.38,14.53c0.03,0.63,0.08,1.56,0.15,2.77
			c0.07,1.22,0.21,2.53,0.42,3.92c0.22,1.4,0.54,2.83,0.98,4.28c0.43,1.45,1.03,2.73,1.8,3.85c0.77,1.12,1.73,1.98,2.9,2.58
			c1.17,0.6,2.58,0.78,4.25,0.55c1.93-0.27,3.78-0.91,5.55-1.92c1.77-1.02,3.43-2.27,5-3.75c1.57-1.48,3.02-3.13,4.38-4.95
			c1.35-1.82,2.6-3.66,3.75-5.52c1.15-1.87,2.17-3.69,3.05-5.48c0.88-1.78,1.65-3.38,2.3-4.8c0.65-1.42,1.16-2.59,1.53-3.52
			c0.37-0.93,0.6-1.47,0.7-1.6c0.13-0.3,0.32-0.49,0.57-0.58c0.25-0.08,0.49-0.07,0.73,0.03c0.23,0.1,0.42,0.32,0.58,0.65
			c0.15,0.33,0.21,0.78,0.17,1.35c0,0.17-0.18,0.83-0.55,2c-0.37,1.17-0.9,2.63-1.6,4.4c-0.7,1.77-1.57,3.75-2.6,5.95
			c-1.03,2.2-2.22,4.43-3.55,6.68c-1.33,2.25-2.81,4.45-4.43,6.6s-3.38,4.05-5.27,5.7c-1.9,1.65-3.92,2.97-6.08,3.95
			c-2.15,0.98-4.42,1.44-6.83,1.38c-2.2-0.07-4.38-0.7-6.55-1.9c-2.17-1.2-4.14-2.99-5.92-5.38c-1.78-2.38-3.26-5.36-4.42-8.92
			c-1.17-3.57-1.83-7.77-2-12.6c-0.2-5.43,0.06-10.91,0.77-16.42c0.72-5.52,1.83-10.81,3.35-15.88c1.52-5.07,3.39-9.79,5.62-14.17
			c2.23-4.38,4.74-8.18,7.52-11.4c2.78-3.22,5.82-5.72,9.1-7.52c3.28-1.8,6.72-2.65,10.32-2.55c3,0.1,5.55,0.73,7.65,1.9
			c2.1,1.17,3.79,2.67,5.08,4.53c1.28,1.85,2.19,3.94,2.72,6.27c0.53,2.33,0.74,4.71,0.62,7.12c-0.12,2.42-0.54,4.78-1.27,7.08
			c-0.73,2.3-1.72,4.36-2.95,6.17c-1.23,1.82-2.7,3.28-4.4,4.4c-1.7,1.12-3.57,1.69-5.6,1.72c-1.9,0.03-3.82-0.3-5.75-1
			c-1.93-0.7-3.88-1.64-5.85-2.82s-3.94-2.52-5.92-4s-3.94-2.98-5.88-4.48c-1.93-1.5-3.84-2.95-5.72-4.35
			c-1.88-1.4-3.73-2.6-5.53-3.6s-3.55-1.72-5.25-2.17s-3.32-0.47-4.85-0.08c-1.9,0.47-3.52,1.25-4.85,2.35
			c-1.33,1.1-2.41,2.38-3.22,3.83c-0.82,1.45-1.38,3.01-1.7,4.67c-0.32,1.67-0.41,3.28-0.27,4.85c0.13,1.17,0.38,2.31,0.75,3.42
			C318.33,98.85,318.75,99.83,319.22,100.66z"/>
		<path class="st0" d="M375.77,136.61c-0.1-1.13-0.08-2.52,0.08-4.15c0.15-1.63,0.47-3.33,0.95-5.1c0.48-1.77,1.13-3.54,1.95-5.32
			s1.83-3.39,3.05-4.83c1.22-1.43,2.63-2.64,4.25-3.62s3.46-1.56,5.53-1.73c0.67-0.07,1.32,0.08,1.95,0.43
			c0.63,0.35,1.17,0.92,1.62,1.72s0.77,1.82,0.97,3.05c0.2,1.23,0.2,2.7,0,4.4c0,0.17-0.08,0.49-0.25,0.97
			c-0.17,0.48-0.35,0.93-0.55,1.35s-0.38,0.73-0.53,0.95c-0.15,0.22-0.19,0.14-0.12-0.22c0.17-1.07,0.23-2.04,0.2-2.92
			c-0.03-0.88-0.14-1.64-0.33-2.28c-0.18-0.63-0.42-1.13-0.7-1.5c-0.28-0.37-0.59-0.57-0.93-0.6c-0.8-0.1-1.68,0.39-2.65,1.47
			c-0.97,1.08-1.88,2.55-2.75,4.4c-0.87,1.85-1.62,3.96-2.25,6.33c-0.63,2.37-1.02,4.77-1.15,7.2c0,0.27,0.03,0.73,0.08,1.4
			c0.05,0.67,0.17,1.33,0.35,2c0.18,0.67,0.42,1.26,0.7,1.78s0.64,0.77,1.08,0.77c0.43,0,0.91-0.32,1.42-0.95
			c0.52-0.63,1.01-1.33,1.48-2.1c0.53-0.9,1.05-1.93,1.55-3.1l2.1,2.8c-0.57,1.57-1.27,2.86-2.12,3.88
			c-0.85,1.02-1.77,1.83-2.75,2.45s-1.97,1.04-2.95,1.27c-0.98,0.23-1.89,0.33-2.72,0.3c-1.17-0.1-2.15-0.55-2.95-1.35
			s-1.45-1.75-1.95-2.85c-0.5-1.1-0.88-2.23-1.15-3.4C376,138.34,375.84,137.38,375.77,136.61z M396.42,112.91
			c0.03-0.5,0.23-0.78,0.58-0.85c0.35-0.07,0.77,0.04,1.25,0.33s0.99,0.7,1.53,1.25c0.53,0.55,1.03,1.18,1.5,1.9
			c0.47,0.72,0.84,1.48,1.12,2.3c0.28,0.82,0.42,1.62,0.42,2.42c0,0.27-0.11,0.81-0.33,1.62c-0.22,0.82-0.48,1.81-0.8,2.97
			c-0.32,1.17-0.67,2.44-1.08,3.83c-0.4,1.38-0.78,2.76-1.15,4.12c-0.37,1.37-0.71,2.68-1.03,3.95c-0.32,1.27-0.56,2.37-0.72,3.3
			c-0.37,1.73-0.42,2.71-0.15,2.92c0.27,0.22,0.83-0.04,1.7-0.77c1.17-0.93,2.33-2.11,3.47-3.53c1.15-1.42,2.24-2.93,3.28-4.55
			c1.03-1.62,1.99-3.25,2.88-4.9c0.88-1.65,1.66-3.17,2.33-4.55c0.67-1.38,1.22-2.56,1.65-3.52c0.43-0.97,0.7-1.57,0.8-1.8
			c0.43-0.97,0.84-1.56,1.23-1.77c0.38-0.22,0.68-0.18,0.9,0.1c0.22,0.28,0.33,0.77,0.33,1.45c0,0.68-0.17,1.46-0.5,2.33
			c-0.43,1.17-1.05,2.63-1.85,4.4c-0.8,1.77-1.75,3.64-2.85,5.62c-1.1,1.98-2.32,3.98-3.65,5.98c-1.33,2-2.72,3.79-4.15,5.38
			c-1.43,1.58-2.91,2.88-4.42,3.88c-1.52,1-3.01,1.5-4.47,1.5c-0.37,0-0.81-0.08-1.33-0.25c-0.52-0.17-1.01-0.48-1.48-0.92
			c-0.47-0.45-0.88-1.08-1.22-1.9c-0.35-0.82-0.54-1.86-0.58-3.12c0-0.2,0.09-0.73,0.28-1.6c0.18-0.87,0.43-1.93,0.75-3.2
			c0.32-1.27,0.67-2.7,1.05-4.3c0.38-1.6,0.78-3.23,1.2-4.9c0.42-1.67,0.83-3.32,1.22-4.95c0.4-1.63,0.77-3.13,1.1-4.5
			c0.33-1.37,0.61-2.55,0.82-3.55S396.38,113.31,396.42,112.91z"/>
		<path class="st0" d="M409.02,175.71c0.77,0.43,1.51,0.17,2.22-0.78s1.36-2.38,1.92-4.27c0.57-1.9,1.04-4.13,1.42-6.7
			c0.38-2.57,0.61-5.27,0.68-8.1c0.07-2.83-0.05-5.66-0.35-8.47s-0.83-5.41-1.6-7.78c-0.77-2.37-1.79-4.4-3.08-6.1
			s-2.88-2.82-4.78-3.35c-0.4-0.1-0.67-0.39-0.82-0.88c-0.15-0.48-0.19-0.96-0.12-1.43c0.07-0.47,0.25-0.86,0.55-1.17
			c0.3-0.32,0.7-0.36,1.2-0.12c0.1,0.03,0.51,0.24,1.22,0.62c0.72,0.38,1.65,0.81,2.8,1.28c1.15,0.47,2.47,0.92,3.95,1.38
			c1.48,0.45,3.05,0.77,4.7,0.95c1.65,0.18,3.33,0.17,5.05-0.03s3.38-0.72,4.97-1.55c1.6-0.83,3.09-2.03,4.48-3.6
			c1.38-1.57,2.58-3.63,3.58-6.2c0.13-0.37,0.32-0.54,0.57-0.53c0.25,0.02,0.49,0.12,0.73,0.33c0.23,0.2,0.42,0.44,0.55,0.72
			c0.13,0.28,0.18,0.49,0.15,0.62c-0.9,2.43-1.95,4.49-3.15,6.17c-1.2,1.68-2.48,3.07-3.85,4.15c-1.37,1.08-2.78,1.91-4.23,2.47
			c-1.45,0.57-2.86,0.97-4.22,1.2c-3.23,0.53-6.6,0.32-10.1-0.65c0.83,1.23,1.54,2.87,2.12,4.9c0.58,2.03,1.03,4.3,1.35,6.8
			c0.32,2.5,0.48,5.13,0.5,7.9c0.02,2.77-0.11,5.48-0.38,8.15c-0.27,2.67-0.68,5.18-1.25,7.55c-0.57,2.37-1.29,4.41-2.17,6.12
			c-0.88,1.72-1.92,3.01-3.1,3.88c-1.18,0.87-2.52,1.13-4.02,0.8c-0.43-0.1-0.88-0.34-1.35-0.72c-0.47-0.38-0.9-0.92-1.3-1.6
			c-0.4-0.68-0.75-1.5-1.05-2.45c-0.3-0.95-0.5-2.04-0.6-3.27c-0.27-2.77-0.2-6.12,0.2-10.05c0.4-3.93,1.02-8.18,1.85-12.75
			s1.83-9.33,3-14.28s2.38-9.83,3.65-14.62c0.9-3.33,1.87-6.61,2.9-9.83c1.03-3.22,2.13-6.27,3.3-9.17c1.17-2.9,2.37-5.58,3.6-8.05
			s2.49-4.61,3.78-6.42s2.58-3.25,3.9-4.3c1.32-1.05,2.61-1.61,3.88-1.67c1.43-0.13,2.56,0.15,3.38,0.85
			c0.82,0.7,1.42,1.62,1.82,2.75c0.4,1.13,0.66,2.41,0.78,3.82c0.12,1.42,0.19,2.78,0.22,4.08c0.03,2.7-0.22,5.29-0.77,7.78
			s-1.29,4.81-2.23,6.97c-0.93,2.17-2.02,4.14-3.25,5.92c-1.23,1.78-2.5,3.31-3.8,4.58c-1.3,1.27-2.6,2.25-3.9,2.95
			c-1.3,0.7-2.48,1.07-3.55,1.1c-1.63,0.07-3.12-0.24-4.45-0.92c-1.33-0.68-2.49-1.48-3.48-2.4s-1.76-1.83-2.33-2.75
			s-0.9-1.59-1-2.03c-0.23-0.9-0.34-1.53-0.32-1.88s0.22-0.44,0.62-0.28c0.1,0.07,0.3,0.29,0.6,0.68s0.68,0.85,1.15,1.4
			c0.47,0.55,1,1.13,1.6,1.75c0.6,0.62,1.28,1.17,2.03,1.67s1.55,0.92,2.4,1.25c0.85,0.33,1.74,0.48,2.67,0.45
			c1.4-0.07,2.76-0.58,4.08-1.52c1.32-0.95,2.56-2.18,3.73-3.7c1.17-1.52,2.24-3.23,3.22-5.12c0.98-1.9,1.83-3.83,2.53-5.78
			c0.7-1.95,1.25-3.84,1.65-5.67c0.4-1.83,0.62-3.45,0.65-4.85c0-0.7-0.06-1.34-0.17-1.93c-0.12-0.58-0.28-1.09-0.48-1.52
			c-0.2-0.43-0.41-0.76-0.62-0.98c-0.22-0.22-0.42-0.29-0.62-0.22c-0.27,0.07-0.71,0.58-1.33,1.55c-0.62,0.97-1.35,2.28-2.2,3.92
			c-0.85,1.65-1.81,3.62-2.88,5.9c-1.07,2.28-2.17,4.78-3.3,7.5s-2.29,5.59-3.47,8.62c-1.18,3.03-2.33,6.15-3.42,9.35
			c-1.33,3.87-2.58,7.76-3.75,11.68c-1.17,3.92-2.2,7.72-3.1,11.4c-0.9,3.68-1.66,7.16-2.27,10.42c-0.62,3.27-1.03,6.17-1.23,8.7
			c-0.2,2.53-0.18,4.62,0.05,6.28C407.75,174.23,408.25,175.28,409.02,175.71z"/>
		<path class="st0" d="M463.67,120.01c-0.53,1.57-1.27,3.38-2.2,5.45c-0.93,2.07-2.02,4.19-3.25,6.37
			c-1.23,2.18-2.58,4.33-4.03,6.45c-1.45,2.12-2.94,3.98-4.47,5.6c-1.53,1.62-3.08,2.91-4.62,3.88s-3.03,1.4-4.42,1.3
			c-2.1-0.13-3.86-0.63-5.28-1.5s-2.55-1.93-3.4-3.2c-0.85-1.27-1.47-2.63-1.85-4.1c-0.38-1.47-0.61-2.88-0.67-4.25
			c-0.2-3.13,0.12-6.12,0.95-8.97c0.83-2.85,2-5.38,3.5-7.58s3.21-3.96,5.12-5.28c1.92-1.32,3.86-2.01,5.83-2.08
			c1.6-0.07,2.84,0.15,3.72,0.65c0.88,0.5,1.53,1.12,1.95,1.85c0.42,0.73,0.65,1.52,0.7,2.35c0.05,0.83,0.06,1.55,0.02,2.15
			c-0.1,1.3-0.37,2.52-0.8,3.65c-0.43,1.13-0.97,2.17-1.62,3.12s-1.37,1.82-2.15,2.6c-0.78,0.78-1.57,1.48-2.38,2.08
			c-1.87,1.43-3.97,2.62-6.3,3.55c-0.93-1-1.6-1.85-2-2.55c-0.17-0.3-0.29-0.58-0.38-0.85s-0.08-0.48,0.03-0.65
			c0.1-0.17,0.3-0.27,0.6-0.33c0.3-0.05,0.75-0.01,1.35,0.12c1.1,0.27,2.27,0.03,3.5-0.7c1.23-0.73,2.39-1.69,3.47-2.87
			c1.08-1.18,2.01-2.47,2.78-3.85c0.77-1.38,1.22-2.59,1.35-3.62c0.07-0.3,0.08-0.62,0.05-0.95c-0.03-0.33-0.1-0.62-0.2-0.88
			c-0.1-0.25-0.25-0.44-0.45-0.57c-0.2-0.13-0.43-0.17-0.7-0.1c-0.47,0.13-1.02,0.57-1.65,1.3c-0.63,0.73-1.27,1.68-1.92,2.83
			c-0.65,1.15-1.29,2.48-1.92,3.98c-0.63,1.5-1.2,3.08-1.7,4.75c-0.5,1.67-0.91,3.38-1.22,5.15c-0.32,1.77-0.48,3.48-0.48,5.15
			c0.03,1.67,0.26,2.97,0.67,3.92s1.16,1.34,2.23,1.17c0.8-0.13,1.67-0.42,2.6-0.88c0.93-0.45,1.88-1.03,2.85-1.75
			c0.97-0.72,1.92-1.58,2.88-2.6c0.95-1.02,1.86-2.17,2.72-3.48c0.93-1.4,1.88-2.97,2.83-4.7s1.84-3.45,2.67-5.15
			c0.83-1.7,1.58-3.28,2.22-4.72c0.65-1.45,1.14-2.58,1.48-3.38c0.47-0.97,0.89-1.56,1.27-1.78s0.68-0.17,0.9,0.12
			s0.33,0.79,0.33,1.47C464.17,118.42,464,119.18,463.67,120.01z"/>
	</g>
	<path class="st11" d="M172.94,39.45c0.4-1.06,0.42-2.2,0.09-3.29c-0.21-0.7-0.59-1.35-1.1-1.87c-0.81-0.81-1.6-1.11-1.99-2.31
		c0.3,1.71-1,3.02-0.79,4.76c0.14,1.13,0.8,2.47,1.68,3.27c0.68,0.61,1.37,1.11,1.67,2.04C172.22,41.2,172.64,40.23,172.94,39.45z
		 M163,30.11c0.93-1.78,1.2-3.77,0.85-5.75c-0.22-1.27-0.74-2.48-1.54-3.49c-1.25-1.59-2.56-2.28-3-4.46
		c0.17,3.05-2.39,5.08-2.39,8.16c0,2.01,0.88,4.49,2.26,6.07c1.06,1.22,2.17,2.23,2.5,3.93C161.37,33.02,162.31,31.42,163,30.11z
		 M250.76,85.55c-0.85,1.83-0.88,3.31-2.63,4.69c2.64-1.52,5.61-0.15,8.36-1.54c1.8-0.91,3.62-2.81,4.4-4.75
		c0.61-1.49,1.02-2.94,2.38-4c-1.25,0.97-3.1,0.85-4.58,0.83c-2-0.03-3.91,0.62-5.51,1.83C252.15,83.38,251.3,84.38,250.76,85.55z
		 M186.86,62.38c-1.86,0.81-2.85,1.91-5.07,1.78c2.99,0.61,4.31,3.6,7.29,4.37c1.95,0.51,4.57,0.28,6.44-0.65
		c1.44-0.72,2.71-1.53,4.43-1.43c-1.58-0.09-2.89-1.41-3.98-2.41c-1.48-1.34-3.34-2.11-5.34-2.28
		C189.34,61.67,188.05,61.86,186.86,62.38z M165.05,54.28c1.09-0.65,2.56-0.37,3.74-0.2c1.6,0.23,3.19-0.1,4.59-0.9
		c0.9-0.51,1.68-1.23,2.24-2.11c0.87-1.38,1.04-2.56,2.57-3.48c-2.27,0.95-4.5-0.45-6.84,0.39c-1.53,0.54-3.17,1.88-4,3.35
		C166.72,52.46,166.24,53.57,165.05,54.28z M149.06,39.98c-0.47,1.21-0.78,2.38-1.86,3.25c0.99-0.8,2.49-0.73,3.68-0.73
		c1.61-0.01,3.14-0.55,4.42-1.55c0.82-0.63,1.49-1.45,1.91-2.41c0.66-1.49,0.66-2.68,2.05-3.81c-2.11,1.26-4.52,0.2-6.71,1.36
		C151.11,36.85,149.67,38.41,149.06,39.98z M140.16,27.4c1.56,0.25,2.73,1.7,3.72,2.8c1.34,1.49,3.11,2.45,5.08,2.81
		c1.27,0.23,2.58,0.17,3.81-0.22c1.93-0.62,3.03-1.6,5.22-1.25c-2.91-0.91-3.92-4.01-6.81-5.09c-1.89-0.7-4.52-0.75-6.48-0.01
		C143.2,26.99,141.86,27.68,140.16,27.4z M260.02,73.6c1.51,1.33,3.95,2.32,6.04,2.33c1.61,0.01,3.11-0.15,4.6,0.73
		c-1.36-0.8-1.94-2.57-2.47-3.94c-0.72-1.87-2.03-3.4-3.74-4.44c-1.1-0.67-2.35-1.09-3.64-1.16c-2.02-0.11-3.4,0.41-5.33-0.7
		C257.88,68.3,257.71,71.57,260.02,73.6z M185.14,78c-0.23,1.28-0.32,2.49-1.22,3.54c0.82-0.97,2.31-1.18,3.48-1.4
		c1.58-0.31,2.98-1.13,4.05-2.34c0.68-0.78,1.19-1.71,1.43-2.72c0.37-1.59,0.15-2.76,1.3-4.13c-1.83,1.64-4.4,1.04-6.34,2.59
		C186.57,74.54,185.45,76.34,185.14,78z M291.43,57.69c-1.29,0.07-2.55,0.43-3.65,1.1c-1.73,1.05-2.57,2.27-4.79,2.44
		c3.04,0.2,4.75,2.99,7.81,3.36c2,0.24,4.57-0.33,6.3-1.5c1.33-0.9,2.48-1.88,4.2-2c-1.58,0.12-3.05-1.02-4.27-1.85
		C295.37,58.1,293.43,57.59,291.43,57.69z M250.64,48.9c-50.22,6.69-78.57-0.41-92.41-16.39c9.66,11.9,27.11,19.87,55.18,21.58
		c-2.66,4.45-10.13,14.97-21.76,16.15c0,0,18.45-1.63,23.47-15.07l-0.2-0.99c20.57,1.07,46.72-1.15,79.56-7.59
		c8.15-1.6,15.96-2.63,23.45-3.23c-7.75,11.95-27.01,35.77-57.42,35.57c0,0,38.86,3.35,63.92-35.99c61.29-2.95,98.1,23.8,98.1,23.8
		l0.88-9.98c0,0-22.46-15.26-60.86-19.95l-5.18-0.56c-17.9-1.66-38.95-0.96-62.59,4.46c-10.37,2.38-20.05,4.33-29.13,5.89"/>
</g>
<rect x="42.57" y="-74.7" style="fill:none;" width="56.17" height="15.25"/>
<text transform="matrix(1 0 0 1 42.569 -66.1337)" style="font-family:'HelveticaNeue'; font-size:12px;">b8d1db</text>
<rect x="174.38" y="-73.59" style="fill:none;" width="82.91" height="29.97"/>
<text transform="matrix(1 0 0 1 174.3834 -65.0233)" style="font-family:'HelveticaNeue'; font-size:12px;">ccd8e0</text>
<rect x="238.38" y="-73.04" style="fill:none;" width="56.17" height="15.25"/>
<text transform="matrix(1 0 0 1 238.3829 -64.4703)" style="font-family:'HelveticaNeue'; font-size:12px;">6c5544</text>
<rect x="364.38" y="-71.87" style="fill:none;" width="56.17" height="15.25"/>
<text transform="matrix(1 0 0 1 364.3763 -63.2964)" style="font-family:'HelveticaNeue'; font-size:12px;">c2b59b</text>
<rect x="234.32" y="-153.15" class="st4" width="126.26" height="73.67"/>
<rect x="364.11" y="-152.87" class="st12" width="56.91" height="73.4"/>
</svg>
